<svg id="Capa_1" data-name="Capa 1" xmlns="http://www.w3.org/2000/svg" viewBox="0 0 269.95 375.53"><defs><style>.cls-1{fill:#fff;}</style></defs><title>ambulancia</title><g id="AW9wjI.tif"><path class="cls-1" d="M335.42,380.11H307.73c0,11.34.07,22.21,0,33.08-0.11,12.62-1.32,13.52-17.37,13.46-13.89-.05-15-1.07-15.12-13.66-0.07-10.59,0-21.21,0-32.33H127.08c0,11.62-.23,22.88.08,34.13,0.24,8.6-3.55,12.39-12,11.91-2.33-.14-4.68,0-7,0-12-.15-13.48-1.56-13.59-13.23-0.1-10.63,0-21.27,0-33.12H66.88c-0.32-3.76-.75-6.34-0.74-8.92,0.21-57.48-.26-115,1-172.43,0.75-35.07,4-70,6.39-105,0.9-13.2,2.65-14.51,16.06-14.51H265.22c1.92-9.41,2.22-18.65,6.09-26,1.51-2.88,11.08-2.28,16.9-2,20.72,1,6.62,18.72,13.82,28h10.43c13.81,0,15.3,1.22,16.34,15.3,1.64,22.32,3.8,44.65,4.25,67,1.4,70.13,2.1,140.3,3,210.45C336.12,374.45,335.72,376.72,335.42,380.11ZM201.11,213.44H301.41c12.4,0,15.1-2.81,14-14.78-2.43-25.6-5.24-51.16-7.51-76.75-0.66-7.53-4-10.59-11.43-10.59q-95.27.15-190.55,0c-7.42,0-10.77,3-11.44,10.59-2.24,25.28-5,50.51-7.45,75.77-1.32,13.19,1.17,15.81,14.85,15.83l99.28-.07h0Zm9,86.67c0-6.52,0-11.77,0-17.08H192c0,5.72,0,11.76,0,17.14H175.57v17.58h16.08V334h18.66V317.69c6.38,0,11.14.05,16.35,0.05V300.08H210.08ZM128.92,250.7c0-11.18-10.16-21.1-21.34-20.91s-21,10.39-20.68,21.53c0.35,10.81,10,20.33,20.81,20.46C118.78,271.9,129,261.81,128.92,250.7Zm188.23-.25c-0.22-11.25-10.41-21-21.55-20.65a21.37,21.37,0,0,0-20.29,21.77c0.44,10.92,10.1,20.26,20.91,20.21C307.34,271.72,317.36,261.5,317.15,250.45Z" transform="translate(-66.14 -51.2)"/></g></svg>