<?xml version="1.0" encoding="utf-8"?>
<!-- Generator: Adobe Illustrator 19.2.1, SVG Export Plug-In . SVG Version: 6.00 Build 0)  -->
<svg version="1.1" id="Capa_1" xmlns="http://www.w3.org/2000/svg" xmlns:xlink="http://www.w3.org/1999/xlink" x="0px" y="0px"
	 viewBox="0 0 284.2 347.9" style="enable-background:new 0 0 284.2 347.9;" xml:space="preserve">
<style type="text/css">
	.st0{fill:#FFFFFF;}
</style>
<title>van</title>
<g id="Ner4C0.tif">
	<g>
		<path class="st0" d="M-8.4,217.9c2.4-9.6,6.5-18.1,15.1-23.7c1.5-1,3-2.4,4.7-2.7c7.1-1.1,9-6.6,11.2-12.2
			c7.1-18.2,14.3-36.3,21.8-54.3c5.6-13.3,16.3-19.7,30.5-20c12.3-0.2,24.6-0.1,37.6-0.1c0-5.6,0-10.8,0-16.1
			c0.1-7.3,2.7-9.9,9.9-9.9c13.3,0,26.7,0,40,0c6.3,0,9,2.8,9.1,9.1c0.1,5.3,0,10.6,0,16.6c1.8,0.1,3.4,0.2,5,0.3
			c10.5,0,21,0,31.5,0c15.6,0.1,26.6,7.3,32.5,21.8c7.8,19.3,15.4,38.7,23,58.2c1,2.7,2.3,4.2,5.2,5.1c13.4,4.2,23.4,16.6,23.7,30.8
			c0.5,25.8,0.2,51.6,0.2,77.5c0,1.2-0.1,2.3-0.2,4c-7.8,0-15.5,0-23.9,0c0,7.2,0.2,13.8-0.1,20.4c-0.2,4.5-0.3,9.1-1.5,13.3
			c-2.9,10.2-13.1,16.2-24.1,14.9c-10.7-1.3-18.5-9.5-19.2-20.3c-0.3-4.6-0.2-9.3-0.3-14c0-4.5,0-8.9,0-13.7
			c-54.3,0-108.1,0-162.7,0c0,8.2,0,16.5,0,24.8c-0.1,8.9-3.1,16.2-11.5,20.5s-16.7,3.8-24.5-1.5c-6.3-4.2-8.8-10.7-9-18
			c-0.2-8.5-0.1-16.9-0.1-25.8c-8.2,0-16.1,0-24,0C-8.4,274.5-8.4,246.2-8.4,217.9z M44.5,187.6c65.4,0,130.1,0,195.2,0
			c-6.1-16-12.2-31.6-18.1-47.2c-4.3-11.3-7-13.2-19.2-13.2c-40.1,0-80.3,0-120.4,0c-1.8,0-3.7,0.1-5.5,0.2
			c-6,0.2-10.1,3.3-12.2,8.7C57.6,153.1,51.2,170.1,44.5,187.6z M59.7,233c0-11.9-8.9-21.1-20.5-21.1c-11.8-0.1-21.4,9.5-21.2,21.2
			c0.2,11.2,9.6,20.7,20.7,20.8C50.2,254,59.7,244.5,59.7,233z M224.6,232.5c0,11.9,8.9,21.2,20.3,21.3c11.5,0.1,20.8-9.2,20.8-20.9
			c0-12-8.7-21.1-20.4-21.1C233.5,211.8,224.6,220.6,224.6,232.5z"/>
	</g>
</g>
</svg>
