<svg id="Capa_1" data-name="Capa 1" xmlns="http://www.w3.org/2000/svg" viewBox="0 0 690.02 646.69"><defs><style>.cls-1{fill:#fff;}</style></defs><title>bus(sectores)</title><g id="yim2I8"><path class="cls-1" d="M658,255.82c-1.76,2.72-3,6.08-5.4,8-3.56,2.91-7.72,6.32-12,6.87-8.24,1.1-16.72.32-25.41,0.32V142.94c25.54-1.37,33.86-2.57,42.79,15.88v97Z" transform="translate(32.01 30.11)"/><path class="cls-1" d="M-32,158.82C-23.93,138-6,142.7,10.53,142.44V271c-8.45,0-16.86.46-25.2-.14-6.61-.49-11.35-4.7-14.59-10.47-0.87-1.55-1.83-3.06-2.74-4.6v-97Z" transform="translate(32.01 30.11)"/><path class="cls-1" d="M528.3,530.57c0,14.16-.07,27.92,0,41.67s-4.71,25.45-15.43,34.42c-6.61,5.58-14.26,9.27-23,9.4-17.26.28-34.56,0.71-51.81-.08-20-.9-36.71-17.44-38.14-37.58-0.94-13.16-.44-26.45-0.58-39.68v-8.06H226.63v6.46c-0.13,13.59.42,27.23-.58,40.78a41,41,0,0,1-39.86,38.24q-23.94.88-47.94,0A41.13,41.13,0,0,1,98,576.47c-0.64-13.23-.23-26.45-0.3-39.68V532c-7.87-2.78-15.27-4.48-21.77-7.86C63.57,517.71,57,506.74,55,493a73,73,0,0,1-.57-10.44q0-189-.12-378.08C54.24,71.89,62.8,42.34,83.71,17.2c23.64-28.43,54.17-44.73,91.35-46.69,20-1.1,40-.39,60.06-0.4,67.79,0,135.58.15,203.36-.11,22.87-.09,44.65,4.06,64.7,15,27.7,15.1,47.71,37.31,59.47,66.82,6.86,17.2,9,35,9,53.37q-0.07,188.75,0,377.51c0,11.28-1.88,21.84-9.24,31-7.52,9.34-17,14.83-28.91,16.21ZM97.36,358H528.55V99.6H97.36V358Zm129.55-302H399.1V13.05H226.91V55.93ZM485.53,487.29a43,43,0,1,0-43.15-43A43,43,0,0,0,485.53,487.29Zm-344.77,0a43,43,0,1,0-.49-86h0c-23.86.2-43.19,19.7-42.85,43.24a43.24,43.24,0,0,0,43.32,42.73h0Z" transform="translate(32.01 30.11)"/></g></svg>