<svg id="Capa_1" data-name="Capa 1" xmlns="http://www.w3.org/2000/svg" viewBox="0 0 370.57 347.3"><defs><style>.cls-1{fill:#fff;}</style></defs><title>bus</title><g id="yim2I8"><path class="cls-1" d="M373.88,232.76c-0.95,1.46-1.6,3.27-2.9,4.32-1.91,1.57-4.14,3.39-6.44,3.69-4.43.59-9,.17-13.65,0.17v-68.8c13.72-.73,18.18-1.38,23,8.52v52.09h0Z" transform="translate(-3.32 -79.2)"/><path class="cls-1" d="M3.32,180.67c4.34-11.18,14-8.65,22.84-8.8v69.06c-4.54,0-9.05.25-13.53-.07-3.55-.26-6.1-2.52-7.84-5.62-0.47-.84-1-1.65-1.47-2.47V180.67h0Z" transform="translate(-3.32 -79.2)"/><path class="cls-1" d="M304.23,380.31c0,7.61,0,15,0,22.36s-2.53,13.67-8.29,18.49a19.48,19.48,0,0,1-12.35,5c-9.27.15-18.56,0.38-27.82,0A21.89,21.89,0,0,1,235.28,406c-0.51-7.07-.23-14.21-0.31-21.3v-4.33H142.22v3.47c-0.07,7.3.22,14.62-.31,21.9a22,22,0,0,1-21.4,20.54q-12.86.47-25.74,0A22.08,22.08,0,0,1,73.16,405c-0.34-7.1-.12-14.21-0.16-21.3V381.1c-4.23-1.49-8.2-2.4-11.71-4.22-6.65-3.46-10.19-9.35-11.24-16.71a39.17,39.17,0,0,1-.29-5.63q0-101.51-.06-203c0-17.52,4.56-33.39,15.79-46.9,12.7-15.26,29.09-24,49.06-25.08,10.73-.59,21.5-0.21,32.25-0.21,36.41,0,72.81.09,109.21-.06,12.28,0,24,2.18,34.75,8.05a68.87,68.87,0,0,1,31.95,35.89c3.68,9.23,4.86,18.82,4.86,28.66q0,101.37,0,202.73c0,6.05-1,11.71-5,16.63A22.49,22.49,0,0,1,307,379.92ZM72.8,287.61H304.36V148.87H72.8V287.61Zm69.57-162.2h92.47v-23H142.37v23ZM281.25,357.07a23.08,23.08,0,1,0-.09,0h0.09Zm-185.15,0a23.09,23.09,0,0,0-.26-46.17h0a23.09,23.09,0,1,0,.25,46.18h0Z" transform="translate(-3.32 -79.2)"/></g></svg>