<?xml version="1.0" encoding="utf-8"?>
<!-- Generator: Adobe Illustrator 19.2.1, SVG Export Plug-In . SVG Version: 6.00 Build 0)  -->
<svg version="1.1" id="Capa_1" xmlns="http://www.w3.org/2000/svg" xmlns:xlink="http://www.w3.org/1999/xlink" x="0px" y="0px"
	 viewBox="0 0 226.7 329.8" style="enable-background:new 0 0 226.7 329.8;" xml:space="preserve">
<style type="text/css">
	.st0{fill:none;stroke:#FFFFFF;stroke-width:11.0624;stroke-miterlimit:10;}
	.st1{fill:#FFFFFF;}
</style>
<title>infoprevia</title>
<g>
	<path class="st0" d="M184.5,134.3c0-40.9-31.8-74.1-71.1-74.1s-71.1,33.1-71.1,74.1c0,27.8,20.8,42.3,33.4,64.7
		c3.8,6.8,3.2,31.2,3.2,31.2h72.5c0,0-0.3-24.3,3.6-31.6C166.3,177.1,184.5,160.7,184.5,134.3z"/>
	<path class="st1" d="M77.8,246.5c0,0,2,10.8,8.1,11.5c6.1,0.7,48.8-11.5,67.1-8.8c0,0,4.4-8.8,0-11.5S85.6,248.9,77.8,246.5z"/>
	<path class="st1" d="M90.3,261c12.1,7.2,55-12.1,57.4-1.8c0,0-15.4,16-22.8,17.7c-7.5,1.7-15.9,0-15.9,0S85.1,257.9,90.3,261z"/>
	<path class="st1" d="M93.5,141.4c0,0,30.3-29.4,33.9-7.7c1.6,9.9-18.1,32.5-14.2,36.8c0.9,1,7.4-2.1,11.3-6.8
		c2.9-3.5,5.7,1.1,3.1,3.8c-3.7,6.6-15.4,19.6-28.2,15.8c-19.6-5.8,17.2-37.3,10-46.8c-2.3-3.1-10.7,4.5-13,8.2
		C93.7,149,92.5,141.5,93.5,141.4z"/>
	
		<ellipse transform="matrix(3.891107e-02 -0.9992 0.9992 3.891107e-02 5.2119 226.2178)" class="st1" cx="120.2" cy="110.4" rx="8.7" ry="8.7"/>
</g>
</svg>
