<svg id="Capa_1" data-name="Capa 1" xmlns="http://www.w3.org/2000/svg" viewBox="0 0 226.71 329.79"><defs><style>.cls-1{fill:none;stroke:#fff;stroke-miterlimit:10;stroke-width:16.36px;}.cls-2{fill:#fff;}</style></defs><title>infoprevia</title><path class="cls-1" d="M290.73,188.75c0-60.5-47.09-109.54-105.18-109.54s-105.18,49-105.18,109.54c0,41.18,30.71,62.57,49.42,95.72,5.61,10,4.67,46.16,4.67,46.16H241.65s-0.37-35.94,5.34-46.75C263.81,252.08,290.73,227.74,290.73,188.75Z" transform="translate(-72.2 -71.03)"/><path class="cls-2" d="M133,354.62s3,16,12,17,72.12-17,99.17-13c0,0,6.51-13,0-17S144.52,358.13,133,354.62Z" transform="translate(-72.2 -71.03)"/><path class="cls-2" d="M151.53,376.16c17.94,10.58,81.37-17.93,84.88-2.62,0,0-22.77,23.66-33.79,26.16s-23.54,0-23.54,0S143.73,371.56,151.53,376.16Z" transform="translate(-72.2 -71.03)"/><path class="cls-2" d="M156.25,199.24s44.84-43.54,50.08-11.35c2.37,14.57-26.71,48.08-21,54.43,1.38,1.54,10.9-3.07,16.66-10,4.32-5.23,8.48,1.65,4.52,5.66-5.53,9.7-22.83,28.94-41.71,23.41-29-8.51,25.43-55.12,14.75-69.23-3.43-4.54-15.82,6.6-19.26,12.13C156.43,210.41,154.76,199.41,156.25,199.24Z" transform="translate(-72.2 -71.03)"/><circle class="cls-2" cx="195.68" cy="153.36" r="12.9" transform="translate(-37.37 271.91) rotate(-87.77)"/></svg>