<?xml version="1.0" encoding="utf-8"?>
<!-- Generator: Adobe Illustrator 19.2.1, SVG Export Plug-In . SVG Version: 6.00 Build 0)  -->
<svg version="1.1" id="Capa_1" xmlns="http://www.w3.org/2000/svg" xmlns:xlink="http://www.w3.org/1999/xlink" x="0px" y="0px"
	 viewBox="0 0 338.5 321.6" style="enable-background:new 0 0 338.5 321.6;" xml:space="preserve">
<style type="text/css">
	.st0{fill:#FFFFFF;}
</style>
<title>infoviaje</title>
<path class="st0" d="M325.1,139.5L261.6,0H76.8L13.4,139.5H0v142.8c21.7,18.9,45,20.2,70.2,0v-35.1h198.1v35.1
	c25.2,20.2,48.4,18.9,70.2,0V139.5H325.1z M81,26.5h176.4l37.6,85.3H43.4L81,26.5z M47.6,196.3c-13.4,0-24.3-10.9-24.3-24.3
	c0-13.4,10.9-24.3,24.3-24.3c13.4,0,24.3,10.9,24.3,24.3l0,0C71.9,185.4,61,196.3,47.6,196.3z M258.5,206.5
	c-59.6,44.2-119.2,44.2-178.8,0c-15.8-12.8,3.8-37,19.6-24.2c46.6,38.4,93.4,38.1,140.3,0C255.7,169.8,274.5,194.1,258.5,206.5z
	 M290.8,196.3c-13.4,0-24.3-10.9-24.3-24.3c0-13.4,10.9-24.3,24.3-24.3c13.4,0,24.3,10.9,24.3,24.3c0,0,0,0,0,0
	C315.1,185.4,304.2,196.3,290.8,196.3z"/>
</svg>
