<?xml version="1.0" encoding="utf-8"?>
<!-- Generator: Adobe Illustrator 19.2.1, SVG Export Plug-In . SVG Version: 6.00 Build 0)  -->
<svg version="1.1" id="Capa_1" xmlns="http://www.w3.org/2000/svg" xmlns:xlink="http://www.w3.org/1999/xlink" x="0px" y="0px"
	 viewBox="0 0 226.7 329.8" style="enable-background:new 0 0 226.7 329.8;" xml:space="preserve">
<style type="text/css">
	.st0{fill:#FFFFFF;}
</style>
<title>infoprevia</title>
<ellipse transform="matrix(3.891107e-02 -0.9992 0.9992 3.891107e-02 281.5497 605.7492)" class="st0" cx="455.7" cy="156.5" rx="12.9" ry="12.9"/>
<path class="st0" d="M217.7,163.4L175.2,70H51.4L9,163.4H0V259c14.5,12.7,30.1,13.5,47,0v-23.5h132.7V259c16.9,13.5,32.4,12.7,47,0
	v-95.6H217.7z M54.2,87.7h118.1l25.2,57.1H29.1L54.2,87.7z M31.9,201.4c-9,0-16.3-7.3-16.3-16.3c0-9,7.3-16.3,16.3-16.3
	s16.3,7.3,16.3,16.3l0,0C48.2,194.1,40.9,201.4,31.9,201.4z M173.1,208.3c-39.9,29.6-79.8,29.6-119.8,0
	c-10.6-8.6,2.5-24.8,13.1-16.2c31.2,25.7,62.6,25.5,94,0C171.3,183.7,183.8,200,173.1,208.3z M194.8,201.4c-9,0-16.3-7.3-16.3-16.3
	c0-9,7.3-16.3,16.3-16.3c9,0,16.3,7.3,16.3,16.3l0,0C211,194.1,203.7,201.4,194.8,201.4z"/>
</svg>
