<svg id="Capa_1" data-name="Capa 1" xmlns="http://www.w3.org/2000/svg" viewBox="0 0 309 352.42"><defs><style>.cls-1{fill:#207da1;}.cls-2{fill:none;stroke:#207da1;stroke-miterlimit:10;stroke-width:6.29px;}.cls-3{fill:#fff;}</style></defs><title>informes(icono)</title><path class="cls-1" d="M53.06,328.46V179.55a11,11,0,0,1,5.5-9.53l129-74.46a11,11,0,0,1,11,0l129,74.46a11,11,0,0,1,5.5,9.53V328.46a11,11,0,0,1-5.5,9.53l-129,74.46a11,11,0,0,1-11,0L58.56,338A11,11,0,0,1,53.06,328.46Z" transform="translate(-38.52 -77.8)"/><path class="cls-2" d="M41.66,335V173a11,11,0,0,1,5.5-9.53l140.36-81a11,11,0,0,1,11,0l140.36,81a11,11,0,0,1,5.5,9.53V335a11,11,0,0,1-5.5,9.53l-140.36,81a11,11,0,0,1-11,0l-140.36-81A11,11,0,0,1,41.66,335Z" transform="translate(-38.52 -77.8)"/><rect class="cls-3" x="72.14" y="167.64" width="41.4" height="74.01" rx="2.79" ry="2.79"/><rect class="cls-3" x="132.65" y="127.4" width="41.4" height="114.25" rx="2.59" ry="2.59"/><rect class="cls-3" x="193.17" y="95.51" width="41.4" height="143.01" rx="2.88" ry="2.88"/></svg>