<?xml version="1.0" encoding="utf-8"?>
<!-- Generator: Adobe Illustrator 19.2.1, SVG Export Plug-In . SVG Version: 6.00 Build 0)  -->
<svg version="1.1" id="Capa_1" xmlns="http://www.w3.org/2000/svg" xmlns:xlink="http://www.w3.org/1999/xlink" x="0px" y="0px"
	 viewBox="0 0 422 138" style="enable-background:new 0 0 422 138;" xml:space="preserve">
<style type="text/css">
	.st0{fill:#FFFFFF;}
	.st1{font-family:'HelveticaNeue-Light';}
	.st2{font-size:23.6547px;}
</style>
<title>inroute(blonaco)</title>
<g>
	<path class="st0" d="M52.7,35.8l0.4,8.4c2.4-3,5.2-5.3,8.6-7c3.4-1.7,7.1-2.6,11.3-2.6c3.2,0,6.2,0.4,8.8,1.3
		c2.6,0.9,4.9,2.3,6.7,4.2c1.8,1.9,3.3,4.4,4.3,7.5c1,3.1,1.5,6.8,1.5,11.1v43.6H82.9V58.6c0-2.6-0.3-4.8-0.9-6.6
		c-0.6-1.8-1.4-3.3-2.6-4.5c-1.1-1.1-2.5-2-4.2-2.5c-1.7-0.5-3.6-0.8-5.7-0.8c-3.7,0-6.9,1-9.7,3c-2.8,2-5,4.5-6.5,7.7v47.4H42V35.8
		H52.7z"/>
	<path class="st0" d="M143.6,46c-1-0.2-1.9-0.3-2.7-0.3c-0.8-0.1-1.8-0.1-2.9-0.1c-3.9,0-7.1,0.9-9.6,2.6c-2.5,1.7-4.3,4-5.6,6.9
		v47.2h-11.4V35.8h11.1l0.2,7.7c1.7-2.7,3.9-4.9,6.5-6.5c2.6-1.6,5.7-2.4,9.4-2.4c0.8,0,1.8,0.1,2.8,0.3c1.1,0.2,1.8,0.4,2.2,0.6V46
		z"/>
	<path class="st0" d="M149.8,68.5c0-4.8,0.7-9.3,2.1-13.4c1.4-4.1,3.4-7.7,6-10.7c2.6-3,5.8-5.4,9.5-7.1c3.7-1.7,7.9-2.6,12.5-2.6
		c4.7,0,8.9,0.9,12.7,2.6c3.8,1.7,6.9,4.1,9.6,7.1c2.6,3,4.6,6.6,6,10.7s2.1,8.6,2.1,13.4v1.4c0,4.8-0.7,9.3-2.1,13.4
		c-1.4,4.1-3.4,7.7-6,10.7c-2.6,3-5.8,5.4-9.5,7.1c-3.7,1.7-7.9,2.6-12.6,2.6s-8.9-0.9-12.6-2.6c-3.7-1.7-6.9-4.1-9.5-7.1
		c-2.6-3-4.6-6.6-6.1-10.7c-1.4-4.1-2.1-8.6-2.1-13.4V68.5z M161.2,69.8c0,3.3,0.4,6.5,1.2,9.4c0.8,3,2,5.5,3.5,7.8
		c1.6,2.2,3.5,4,5.9,5.3c2.4,1.3,5.1,2,8.3,2c3.1,0,5.9-0.7,8.2-2c2.4-1.3,4.3-3.1,5.9-5.3c1.6-2.2,2.7-4.8,3.5-7.8
		c0.8-3,1.2-6.1,1.2-9.4v-1.4c0-3.3-0.4-6.4-1.2-9.4c-0.8-3-2-5.6-3.6-7.8c-1.6-2.2-3.6-4-5.9-5.3c-2.4-1.3-5.1-2-8.3-2
		c-3.1,0-5.8,0.7-8.2,2c-2.3,1.3-4.3,3.1-5.9,5.3c-1.6,2.2-2.8,4.8-3.5,7.8c-0.8,3-1.2,6.1-1.2,9.4V69.8z"/>
	<path class="st0" d="M265.7,95.8c-2.1,2.5-4.7,4.4-7.9,5.7c-3.2,1.4-7,2.1-11.6,2.1c-3.3,0-6.3-0.5-8.9-1.4c-2.7-0.9-5-2.4-6.9-4.4
		c-1.9-2-3.4-4.5-4.5-7.7c-1-3.1-1.6-6.9-1.6-11.3v-43h11.4v43.1c0,3,0.3,5.5,1,7.4c0.7,1.9,1.6,3.5,2.8,4.6
		c1.1,1.1,2.5,1.9,3.9,2.3c1.5,0.4,3,0.6,4.5,0.6c4.6,0,8.3-0.9,11.2-2.6c2.8-1.8,4.9-4.1,6.2-7.1V35.8h11.4v66.5h-10.8L265.7,95.8z
		"/>
	<path class="st0" d="M309.4,19.7v16.1h12.4v8.8h-12.4v41.2c0,1.7,0.2,3.1,0.6,4.1c0.4,1,1,1.9,1.6,2.4c0.7,0.6,1.5,1,2.3,1.1
		c0.9,0.2,1.8,0.3,2.7,0.3c0.9,0,1.9-0.1,3-0.3s1.9-0.3,2.4-0.5v9.2c-0.9,0.2-2.1,0.5-3.5,0.8c-1.4,0.3-3.2,0.4-5.2,0.4
		c-2.1,0-4.1-0.3-5.9-0.9c-1.9-0.6-3.5-1.6-4.9-3c-1.4-1.4-2.5-3.2-3.3-5.5c-0.8-2.3-1.2-5.1-1.2-8.4V44.6h-12.1v-8.8h12.1V19.7
		H309.4z"/>
	<path class="st0" d="M362.7,103.6c-4.6,0-8.8-0.8-12.6-2.4c-3.7-1.6-7-3.8-9.6-6.7c-2.7-2.8-4.7-6.2-6.1-10.2
		c-1.4-3.9-2.2-8.2-2.2-12.9v-2.6c0-5.4,0.8-10.2,2.4-14.5c1.6-4.3,3.8-7.8,6.5-10.8c2.7-2.9,5.8-5.1,9.3-6.7
		c3.5-1.5,7.1-2.3,10.9-2.3c4.8,0,8.9,0.8,12.3,2.5c3.4,1.7,6.3,3.9,8.5,6.9c2.2,2.9,3.9,6.4,4.9,10.3c1.1,4,1.6,8.3,1.6,13v5.1
		h-45.1c0.1,3.1,0.6,5.9,1.5,8.6c0.9,2.7,2.2,5,3.9,6.9c1.7,2,3.8,3.5,6.1,4.7c2.4,1.1,5.1,1.7,8.1,1.7c4,0,7.4-0.8,10.2-2.5
		c2.8-1.6,5.2-3.8,7.3-6.5l6.9,5.4c-1.1,1.6-2.4,3.2-3.9,4.8c-1.5,1.5-3.3,2.9-5.3,4.1c-2,1.2-4.4,2.2-7,2.9
		C369,103.2,366,103.6,362.7,103.6z M361.3,44c-2.3,0-4.4,0.4-6.3,1.3c-1.9,0.8-3.6,2.1-5.2,3.7c-1.5,1.6-2.8,3.6-3.8,6
		c-1,2.4-1.7,5.1-2.1,8.2h33.3v-0.9c-0.1-2.2-0.5-4.4-1.1-6.6c-0.6-2.2-1.5-4.1-2.8-5.8c-1.3-1.7-2.9-3.1-4.8-4.2
		C366.7,44.5,364.2,44,361.3,44z"/>
</g>
<path class="st0" d="M18.1,42.5c-2,0-3.9-0.4-5.7-1.2v61.1h11.4V41.3C22,42,20.1,42.5,18.1,42.5z"/>
<path class="st0" d="M18.1,9.5C10.3,9.5,4,15.8,4,23.6s6.3,14.1,14.1,14.1s14.1-6.3,14.1-14.1S25.9,9.5,18.1,9.5z M11.6,18.2
	c-1.1,0-2-0.9-2-2c0-1.1,0.9-2,2-2c1.1,0,2,0.9,2,2C13.6,17.3,12.7,18.2,11.6,18.2z"/>
<text transform="matrix(1 0 0 1 184.8055 127.1104)" class="st0 st1 st2">Telematics Solutions</text>
<g id="ZmdHch_1_">
	<g>
		<path class="st0" d="M416.8,57.6c-2.5,0-4.9,0-7.5,0c-0.2-12.4-4.5-23.2-13.3-32c-8.8-8.8-19.5-13.1-31.9-13.3c0-2.5,0-4.9,0-7.4
			C390.6,4.1,417,26.7,416.8,57.6z"/>
		<path class="st0" d="M401.7,57.6c-2.5,0-4.9,0-7.5,0c-0.2-8.2-3-15.4-8.9-21.3c-5.9-5.9-13-8.7-21.2-8.9c0-2.5,0-5,0-7.4
			C383.3,19.4,402,35.9,401.7,57.6z"/>
	</g>
</g>
</svg>
