<svg id="Capa_1" data-name="Capa 1" xmlns="http://www.w3.org/2000/svg" viewBox="0 0 422 138"><defs><style>.cls-1,.cls-2{fill:#fff;}.cls-2{isolation:isolate;font-size:22.05px;font-family:Helvetica Neue;}</style></defs><title>inroute(blonaco)</title><path class="cls-1" d="M66,37.89l0.36,7.77a23.85,23.85,0,0,1,8-6.58,22.84,22.84,0,0,1,10.55-2.37A25.22,25.22,0,0,1,93.1,38a15,15,0,0,1,6.22,4,18.65,18.65,0,0,1,4,7,32.83,32.83,0,0,1,1.42,10.31V99.84H94.11V59.12A20.68,20.68,0,0,0,93.28,53a9.8,9.8,0,0,0-2.37-4.15A10.06,10.06,0,0,0,87,46.43a18.08,18.08,0,0,0-5.34-.77,15.33,15.33,0,0,0-9.07,2.73,18.46,18.46,0,0,0-6,7.23V99.78H55.93V37.89H66Z"/><path class="cls-1" d="M150.66,47.44a21.08,21.08,0,0,0-2.55-.3c-0.77-.06-1.66-0.06-2.67-0.06a15.36,15.36,0,0,0-9,2.43A14.29,14.29,0,0,0,131.34,56v44H120.73V37.89H131l0.18,7.17a18.83,18.83,0,0,1,6-6A16.5,16.5,0,0,1,146,36.77a14.19,14.19,0,0,1,2.61.24,10,10,0,0,1,2.07.53v9.9h0Z"/><path class="cls-1" d="M156.47,68.37a38.69,38.69,0,0,1,2-12.51,30.1,30.1,0,0,1,5.63-10,25.73,25.73,0,0,1,8.83-6.64,27.62,27.62,0,0,1,11.68-2.43,28.25,28.25,0,0,1,11.86,2.43,25.4,25.4,0,0,1,8.89,6.64,30.1,30.1,0,0,1,5.63,10,38.69,38.69,0,0,1,2,12.51v1.24a38.69,38.69,0,0,1-2,12.51,28.3,28.3,0,0,1-5.63,10,26,26,0,0,1-8.89,6.58,30.24,30.24,0,0,1-23.48,0,26,26,0,0,1-8.89-6.58,29.24,29.24,0,0,1-5.63-10,38.69,38.69,0,0,1-2-12.51V68.37h0Zm10.67,1.24a35.22,35.22,0,0,0,1.07,8.77,21.88,21.88,0,0,0,3.32,7.23,17,17,0,0,0,5.51,5,15.29,15.29,0,0,0,7.71,1.84,15.6,15.6,0,0,0,7.71-1.84,16.4,16.4,0,0,0,5.51-5,24.55,24.55,0,0,0,3.32-7.23,32.35,32.35,0,0,0,1.13-8.77V68.37a31.91,31.91,0,0,0-1.13-8.71A22.86,22.86,0,0,0,198,52.36a17,17,0,0,0-5.51-5,15.44,15.44,0,0,0-7.71-1.84,15.21,15.21,0,0,0-7.65,1.84,16.27,16.27,0,0,0-5.45,5,22.86,22.86,0,0,0-3.32,7.29,35.09,35.09,0,0,0-1.07,8.71v1.24h-0.12Z"/><path class="cls-1" d="M264.48,93.8a18.93,18.93,0,0,1-7.41,5.34,26.83,26.83,0,0,1-10.79,1.9,24.39,24.39,0,0,1-8.3-1.3,15.84,15.84,0,0,1-6.4-4.09,18.47,18.47,0,0,1-4.15-7.17A34.3,34.3,0,0,1,226,77.91v-40h10.61V78.09a20.45,20.45,0,0,0,.95,6.88,10.7,10.7,0,0,0,2.61,4.33,8.71,8.71,0,0,0,3.68,2.19,14.56,14.56,0,0,0,4.27.59c4.33,0,7.77-.83,10.37-2.49A14.68,14.68,0,0,0,264.19,83V37.89H274.8v62H264.72Z"/><path class="cls-1" d="M305.27,22.9v15h11.56v8.18H305.27V84.55a9.92,9.92,0,0,0,.59,3.85,5.26,5.26,0,0,0,1.54,2.25,5.06,5.06,0,0,0,2.19,1.07,12,12,0,0,0,2.55.24,15.61,15.61,0,0,0,2.79-.24c0.95-.18,1.72-0.3,2.25-0.41v8.6c-0.83.24-2,.47-3.26,0.77a23.21,23.21,0,0,1-4.86.41,18.5,18.5,0,0,1-5.51-.83A11.07,11.07,0,0,1,299,97.47a13.74,13.74,0,0,1-3.08-5.16,23.23,23.23,0,0,1-1.13-7.83V46.08H283.51V37.89h11.26v-15h10.49Z"/><path class="cls-1" d="M355,101.09a29.81,29.81,0,0,1-11.74-2.25,25.87,25.87,0,0,1-9-6.22,27.87,27.87,0,0,1-5.75-9.48,34.42,34.42,0,0,1-2-12V68.66a38.46,38.46,0,0,1,2.25-13.52,29.58,29.58,0,0,1,6-10,26,26,0,0,1,8.66-6.22,25.09,25.09,0,0,1,10.14-2.13,26.09,26.09,0,0,1,11.44,2.31,21.59,21.59,0,0,1,7.94,6.4,27.82,27.82,0,0,1,4.62,9.6,46.3,46.3,0,0,1,1.48,12.09v4.74h-42a25.2,25.2,0,0,0,1.42,8,19.75,19.75,0,0,0,3.68,6.46,17.23,17.23,0,0,0,13.34,5.93A18.14,18.14,0,0,0,365,90a24.44,24.44,0,0,0,6.82-6l6.46,5a27.66,27.66,0,0,1-3.62,4.45,24.76,24.76,0,0,1-11.5,6.52A26.5,26.5,0,0,1,355,101.09Zm-1.36-55.61a15.12,15.12,0,0,0-5.93,1.19,14.1,14.1,0,0,0-4.8,3.44,16.88,16.88,0,0,0-3.5,5.57,25.82,25.82,0,0,0-1.9,7.65h31.06V62.5a30.54,30.54,0,0,0-1-6.11A17.08,17.08,0,0,0,365,50.94,13.29,13.29,0,0,0,353.64,45.48Z"/><path class="cls-1" d="M33.7,44.06a12.94,12.94,0,0,1-5.28-1.13v57H39v-57A12.49,12.49,0,0,1,33.7,44.06Z"/><path class="cls-1" d="M33.7,13.35a13.1,13.1,0,1,0,13.1,13.1A13.11,13.11,0,0,0,33.7,13.35Zm-6,8.06a1.9,1.9,0,1,1,1.9-1.9A2,2,0,0,1,27.66,21.41Z"/><text class="cls-2" transform="translate(153.65 123)">soluciones tecnológicas </text><g id="ZmdHch"><path class="cls-1" d="M405.4,58.23h-6.94a41.84,41.84,0,0,0-12.39-29.82A41.47,41.47,0,0,0,356.37,16V9.14C381,8.31,405.51,29.42,405.4,58.23Z"/><path class="cls-1" d="M391.35,58.23h-6.94a28.34,28.34,0,0,0-28-28.16V23.13C374.15,22.54,391.52,38,391.35,58.23Z"/></g></svg>