<?xml version="1.0" encoding="utf-8"?>
<!-- Generator: Adobe Illustrator 19.2.1, SVG Export Plug-In . SVG Version: 6.00 Build 0)  -->
<svg version="1.1" id="Capa_1" xmlns="http://www.w3.org/2000/svg" xmlns:xlink="http://www.w3.org/1999/xlink" x="0px" y="0px"
	 viewBox="0 0 792 612" style="enable-background:new 0 0 792 612;" xml:space="preserve">
<style type="text/css">
	.st0{fill:#FFFFFF;}
	.st1{font-family:'HelveticaNeue-Light';}
	.st2{font-size:37.198px;}
</style>
<g>
	<path class="st0" d="M170.2,215l0.6,13.1c3.7-4.7,8.2-8.4,13.5-11.1c5.3-2.7,11.2-4,17.8-4c5.1,0,9.7,0.7,13.8,2.1
		c4.1,1.4,7.6,3.6,10.5,6.7c2.9,3.1,5.1,7,6.7,11.8c1.6,4.8,2.4,10.6,2.4,17.4v68.5h-17.9v-68.7c0-4.1-0.5-7.5-1.4-10.4
		c-0.9-2.9-2.2-5.2-4-7c-1.8-1.8-4-3.1-6.6-4c-2.6-0.8-5.6-1.3-9-1.3c-5.8,0-10.9,1.5-15.3,4.6c-4.4,3.1-7.8,7.2-10.2,12.2v74.5
		h-17.9V215H170.2z"/>
	<path class="st0" d="M313,231.1c-1.5-0.3-3-0.4-4.3-0.5c-1.3-0.1-2.8-0.1-4.5-0.1c-6.2,0-11.2,1.4-15.1,4.1
		c-3.9,2.7-6.8,6.3-8.7,10.9v74.2h-17.9V215h17.4l0.3,12.1c2.7-4.3,6.1-7.7,10.1-10.2c4.1-2.5,9-3.8,14.8-3.8c1.3,0,2.8,0.1,4.4,0.4
		c1.7,0.3,2.8,0.6,3.5,0.9V231.1z"/>
	<path class="st0" d="M322.8,266.4c0-7.6,1.1-14.6,3.3-21.1c2.2-6.5,5.4-12.1,9.5-16.9c4.1-4.8,9.1-8.5,14.9-11.2
		c5.9-2.7,12.4-4.1,19.7-4.1c7.4,0,14.1,1.4,20,4.1c5.9,2.7,10.9,6.4,15,11.2c4.1,4.8,7.3,10.4,9.5,16.9c2.2,6.5,3.3,13.5,3.3,21.1
		v2.1c0,7.6-1.1,14.6-3.3,21.1c-2.2,6.5-5.3,12.1-9.5,16.8c-4.1,4.7-9.1,8.4-15,11.1c-5.9,2.7-12.5,4-19.8,4c-7.3,0-14-1.3-19.8-4
		c-5.9-2.7-10.9-6.4-15-11.1c-4.1-4.7-7.3-10.3-9.5-16.8c-2.2-6.5-3.3-13.5-3.3-21.1V266.4z M340.8,268.5c0,5.2,0.6,10.1,1.8,14.8
		c1.2,4.6,3.1,8.7,5.6,12.2c2.5,3.5,5.6,6.3,9.3,8.4c3.7,2.1,8,3.1,13,3.1c4.9,0,9.2-1,13-3.1c3.7-2.1,6.8-4.8,9.3-8.4
		c2.4-3.5,4.3-7.6,5.6-12.2c1.3-4.6,1.9-9.6,1.9-14.8v-2.1c0-5.2-0.6-10.1-1.9-14.7c-1.3-4.7-3.1-8.8-5.6-12.3
		c-2.5-3.5-5.6-6.3-9.3-8.4c-3.7-2.1-8.1-3.1-13-3.1c-4.9,0-9.2,1-12.9,3.1c-3.7,2.1-6.8,4.9-9.2,8.4c-2.5,3.5-4.3,7.6-5.6,12.3
		c-1.2,4.7-1.8,9.6-1.8,14.7V268.5z"/>
	<path class="st0" d="M505,309.3c-3.3,3.9-7.4,6.9-12.5,9c-5,2.2-11.1,3.2-18.2,3.2c-5.2,0-9.8-0.7-14-2.2
		c-4.2-1.5-7.8-3.7-10.8-6.9c-3-3.1-5.4-7.2-7-12.1c-1.6-4.9-2.5-10.9-2.5-17.8V215h17.9v67.8c0,4.7,0.5,8.6,1.6,11.6
		c1.1,3.1,2.5,5.5,4.4,7.3c1.8,1.8,3.9,3,6.2,3.7c2.3,0.7,4.7,1,7.2,1c7.3,0,13.1-1.4,17.5-4.2c4.4-2.8,7.7-6.5,9.7-11.1V215h17.9
		v104.6h-17L505,309.3z"/>
	<path class="st0" d="M573.8,189.7V215h19.5v13.8h-19.5v64.9c0,2.7,0.3,4.9,1,6.5c0.6,1.6,1.5,2.9,2.6,3.8c1.1,0.9,2.3,1.5,3.7,1.8
		c1.4,0.3,2.8,0.4,4.3,0.4c1.5,0,3-0.1,4.7-0.4c1.6-0.3,2.9-0.5,3.8-0.7v14.5c-1.4,0.4-3.3,0.8-5.5,1.3c-2.3,0.5-5,0.7-8.2,0.7
		c-3.3,0-6.4-0.5-9.3-1.4c-2.9-0.9-5.5-2.5-7.7-4.7c-2.2-2.2-3.9-5.1-5.2-8.7c-1.3-3.6-1.9-8-1.9-13.2v-64.8h-19V215h19v-25.3H573.8
		z"/>
	<path class="st0" d="M657.7,321.6c-7.3,0-13.9-1.3-19.8-3.8c-5.9-2.5-10.9-6-15.1-10.5c-4.2-4.5-7.4-9.8-9.7-16
		c-2.3-6.2-3.4-13-3.4-20.3v-4.1c0-8.5,1.3-16.1,3.8-22.8c2.5-6.7,5.9-12.3,10.2-16.9c4.3-4.6,9.1-8.1,14.6-10.5
		c5.5-2.4,11.2-3.6,17.1-3.6c7.5,0,13.9,1.3,19.3,3.9c5.4,2.6,9.9,6.2,13.4,10.8c3.5,4.6,6.1,10,7.8,16.2c1.7,6.3,2.5,13.1,2.5,20.4
		v8h-70.9c0.1,4.8,0.9,9.3,2.4,13.5c1.5,4.2,3.5,7.8,6.2,10.9c2.7,3.1,5.9,5.5,9.7,7.3c3.8,1.8,8,2.7,12.8,2.7
		c6.3,0,11.7-1.3,16-3.9c4.4-2.6,8.2-6,11.5-10.2l10.9,8.5c-1.7,2.6-3.7,5.1-6.1,7.5c-2.4,2.4-5.2,4.6-8.4,6.5
		c-3.2,1.9-6.8,3.4-11,4.5C667.5,321,662.9,321.6,657.7,321.6z M655.4,227.8c-3.6,0-6.9,0.7-10,2c-3,1.3-5.7,3.2-8.1,5.8
		c-2.4,2.5-4.4,5.6-5.9,9.4c-1.6,3.7-2.7,8-3.2,12.9h52.4v-1.4c-0.2-3.5-0.8-6.9-1.7-10.3c-0.9-3.4-2.4-6.5-4.3-9.2
		c-2-2.7-4.5-4.9-7.6-6.6C663.8,228.6,660,227.8,655.4,227.8z"/>
</g>
<path class="st0" d="M115.7,225.4c-3.2,0-6.2-0.7-8.9-1.9v96.1h17.9v-96.1C121.9,224.8,118.9,225.4,115.7,225.4z"/>
<path class="st0" d="M115.7,173.6c-12.2,0-22.1,9.9-22.1,22.1s9.9,22.1,22.1,22.1s22.1-9.9,22.1-22.1S127.9,173.6,115.7,173.6z
	 M105.5,187.2c-1.7,0-3.2-1.4-3.2-3.2c0-1.7,1.4-3.2,3.2-3.2c1.7,0,3.2,1.4,3.2,3.2C108.6,185.8,107.2,187.2,105.5,187.2z"/>
<text transform="matrix(1 0 0 1 318.0352 358.5588)" class="st0 st1 st2">soluciones tecnológicas </text>
<g id="ZmdHch_1_">
	<g>
		<path class="st0" d="M742.7,249.3c-3.9,0-7.8,0-11.7,0c-0.3-19.4-7.1-36.4-20.9-50.3c-13.8-13.8-30.7-20.6-50.1-20.9
			c0-3.9,0-7.8,0-11.6C701.5,165.1,742.9,200.7,742.7,249.3z"/>
		<path class="st0" d="M719,249.3c-3.9,0-7.8,0-11.7,0c-0.3-13-4.7-24.3-14-33.5c-9.2-9.2-20.5-13.7-33.3-14c0-3.9,0-7.8,0-11.7
			C690,189.1,719.3,215.2,719,249.3z"/>
	</g>
</g>
</svg>
