<?xml version="1.0" encoding="utf-8"?>
<!-- Generator: Adobe Illustrator 19.2.1, SVG Export Plug-In . SVG Version: 6.00 Build 0)  -->
<svg version="1.1" id="Capa_1" xmlns="http://www.w3.org/2000/svg" xmlns:xlink="http://www.w3.org/1999/xlink" x="0px" y="0px"
	 viewBox="0 0 309 352.4" style="enable-background:new 0 0 309 352.4;" xml:space="preserve">
<style type="text/css">
	.st0{fill:#7DBA06;}
	.st1{fill:none;stroke:#7DBA06;stroke-width:6.29;stroke-miterlimit:10;}
	.st2{fill:#FFFFFF;}
</style>
<title>informes(icono)</title>
<path class="st0" d="M14.5,250.7V101.8c0-3.9,2.1-7.6,5.5-9.5l129-74.5c3.4-2,7.6-2,11,0l129,74.5c3.4,2,5.5,5.6,5.5,9.5v148.9
	c0,3.9-2.1,7.6-5.5,9.5l-129,74.5c-3.4,2-7.6,2-11,0L20,260.2C16.6,258.2,14.5,254.6,14.5,250.7z"/>
<path class="st1" d="M3.1,257.2v-162c0-3.9,2.1-7.6,5.5-9.5L149,4.7c3.4-2,7.6-2,11,0l140.4,81c3.4,2,5.5,5.6,5.5,9.5v162
	c0,3.9-2.1,7.6-5.5,9.5l-140.4,81c-3.4,2-7.6,2-11,0l-140.4-81C5.2,264.8,3.1,261.1,3.1,257.2z"/>
<g id="iVyhBl.tif">
	<g>
		<path class="st2" d="M47.8,175.7c0.2-0.2,0.2-0.4,0.3-0.7c0.6-5.8,4.9-10.7,10.7-12.2c1.1-0.3,2.3-0.4,3.4-0.4c0.3,0,0.6,0,0.9,0
			c20.8,0,41.6,0,62.5,0c0.3,0,0.6,0,0.9-0.1c-0.1-0.1-0.1-0.2-0.2-0.3c-0.1-0.2-0.3-0.3-0.4-0.5c-4.9-4.9-9.7-9.8-14.6-14.6
			c-1.6-1.6-2.9-3.5-3.6-5.8c-2.7-8.4,2.5-16.8,10.6-18.5c5-1,9.5,0.3,13.1,3.9c13,13,26,26,39,39c2.6,2.6,5.3,5.3,7.9,7.9
			c0.2,0.2,0.3,0.3,0.5,0.5c1.6,1.8,1.6,4.5,0,6.2c-0.2,0.2-0.4,0.4-0.5,0.6c-5.8,5.8-11.6,11.6-17.4,17.4
			c-9.7,9.7-19.4,19.4-29.1,29c-0.6,0.6-1.3,1.2-2,1.7c-2,1.5-4.2,2.4-6.7,2.7c-7.3,1-14.1-3.8-15.7-10.7c-1.2-4.8-0.1-9.1,3.1-12.9
			c0.3-0.4,0.6-0.7,1-1c5.1-5.1,10.3-10.3,15.4-15.4c0.2-0.2,0.4-0.3,0.5-0.6c-0.1,0-0.2-0.1-0.3-0.1c-0.3,0-0.5,0-0.8,0
			c-21.3,0-42.5,0-63.8,0c-1.8,0-3.5-0.2-5.2-0.8c-5-1.8-8.4-6.1-9.2-10.9c-0.1-0.3-0.1-0.7-0.1-1c0-0.2-0.1-0.4-0.3-0.5
			C47.8,177.1,47.8,176.4,47.8,175.7z"/>
		<path class="st2" d="M158.4,249c-0.1-0.1-0.3-0.1-0.4-0.2c-1.8-0.6-2.9-2.2-2.9-4.1c0-3.6,0-7.3,0-10.9c0-0.3,0-0.5,0-0.7
			c-0.2-0.3-0.5-0.3-0.8-0.3c-5-1.3-9.6-3.3-14.1-5.9c-0.2-0.1-0.4-0.3-0.7-0.4c0.1-0.1,0.1-0.2,0.1-0.2c4.3-4,8.7-8,13.1-12
			c0.2,0.1,0.3,0.1,0.5,0.2c2.7,1.2,5.5,2,8.3,2.6c1.7,0.3,3.5,0.6,5.2,0.7c2,0.1,3.9,0.1,5.9-0.1c4-0.3,7.9-1.2,11.6-2.7
			c11.9-4.8,20.9-14.9,24.1-27.3c0.7-2.5,1.1-5.1,1.2-7.7c0.1-2,0.1-4-0.1-6c-0.6-6.8-2.7-13.1-6.5-18.7c-6-8.9-14.2-14.6-24.6-17.2
			c-3.8-0.9-7.7-1.2-11.6-1c-5,0.2-9.9,1.4-14.4,3.6c-0.1,0-0.2,0.1-0.3,0.1c0,0,0,0-0.1,0c0,0,0,0-0.1,0c0,0,0,0-0.1,0
			c-4.1-4.1-8.2-8.1-12.3-12.2c-0.1-0.1-0.1-0.1-0.2-0.2c0,0,0,0,0-0.1c0.5-0.5,2.5-1.6,5-2.7c1.7-0.8,3.5-1.5,5.3-2.2
			c1.8-0.6,3.6-1.2,5.4-1.7c0.2-0.3,0.1-0.5,0.1-0.8c0-3.5,0-7.1,0-10.6c0-0.4,0-0.9,0.1-1.3c0.4-1.6,1.4-2.6,2.9-3.1
			c0.2-0.1,0.5-0.2,0.7-0.3c6.5,0,13.1,0,19.6,0c0.2,0.2,0.5,0.2,0.7,0.3c1.6,0.6,2.6,1.7,2.8,3.4c0.1,0.4,0.1,0.7,0.1,1.1
			c0,3.4,0,6.9,0,10.3c0,0.3,0,0.5,0.1,0.8c0.7,0.2,1.5,0.4,2.2,0.6c0.7,0.2,1.4,0.4,2.1,0.6c0.7,0.2,1.4,0.5,2.1,0.7
			c0.7,0.3,1.4,0.5,2.1,0.8c0.7,0.3,1.4,0.6,2.1,0.9c0.7,0.3,1.3,0.6,2,0.9c0.7,0.3,1.3,0.7,2,1.1c0.7,0.4,1.3,0.7,2,1.1
			c0.2-0.2,0.4-0.4,0.6-0.6c2.4-2.4,4.9-4.9,7.3-7.3c0.2-0.2,0.4-0.4,0.6-0.5c1.2-1,2.6-1.3,4.1-0.9c0.8,0.2,1.5,0.7,2.1,1.3
			c4.2,4.2,8.3,8.4,12.5,12.5c0.2,0.2,0.3,0.3,0.5,0.5c1.4,1.7,1.3,4.1-0.1,5.7c-0.1,0.2-0.3,0.3-0.4,0.5c-2.4,2.4-4.9,4.9-7.3,7.3
			c-0.2,0.2-0.4,0.3-0.5,0.6c0.1,0.2,0.2,0.4,0.4,0.6c0.9,1.5,1.7,3,2.4,4.5c1.7,3.5,3,7.1,3.9,10.9c0.1,0.2,0.1,0.4,0.3,0.6
			c0.2,0,0.5,0,0.7,0c3.4,0,6.8,0,10.2,0c0.5,0,1,0,1.5,0.2c1.5,0.5,2.6,1.5,2.9,3.2c0,0.1,0.1,0.1,0.1,0.2c0,6.6,0,13.2,0,19.8
			c0,0.1-0.1,0.3-0.1,0.4c0,0.3-0.2,0.6-0.3,0.9c-0.5,1-1.3,1.7-2.4,2.1c-0.5,0.2-1.1,0.3-1.7,0.3c-3.4,0-6.8,0-10.2,0
			c-0.3,0-0.5,0-0.8,0c-0.3,1-0.5,2-0.8,2.9c-0.3,1-0.6,1.9-0.9,2.9c-0.3,1-0.7,1.9-1.1,2.8c-0.4,1-0.8,1.9-1.3,2.8
			c-0.4,0.9-0.9,1.8-1.4,2.7c-0.5,0.9-1,1.7-1.5,2.6c0.2,0.2,0.4,0.4,0.6,0.6c2.3,2.3,4.7,4.7,7,7c0.1,0.1,0.3,0.3,0.4,0.5
			c1.5,1.7,1.5,4.1,0,5.8c-0.1,0.2-0.3,0.3-0.4,0.5c-4.1,4.1-8.3,8.3-12.4,12.4c-0.1,0.1-0.3,0.3-0.5,0.4c-1.7,1.5-4.1,1.5-5.7,0
			c-0.2-0.2-0.4-0.4-0.6-0.5c-2.4-2.4-4.8-4.8-7.1-7.1c-0.2-0.2-0.3-0.4-0.5-0.5c-1.4,0.7-2.7,1.5-4,2.1c-1.3,0.7-2.7,1.3-4.1,1.8
			c-1.4,0.6-2.8,1.1-4.2,1.5c-1.4,0.5-2.9,0.8-4.4,1.2c0,0.4,0,0.9,0,1.3c0,3.4,0,6.8,0,10.2c0,1.6-1,3.5-3,4.2
			c-0.1,0-0.3,0.1-0.4,0.2C171.9,249,165.1,249,158.4,249z"/>
	</g>
</g>
</svg>
