<svg id="Capa_1" data-name="Capa 1" xmlns="http://www.w3.org/2000/svg" viewBox="0 0 309 352.42"><defs><style>.cls-1{fill:#c31e58;}.cls-2{fill:none;stroke:#c31e58;stroke-miterlimit:10;stroke-width:6.29px;}.cls-3{fill:#fff;}</style></defs><title>localización(icono)</title><path class="cls-1" d="M53.06,328.46V179.55a11,11,0,0,1,5.5-9.53l129-74.46a11,11,0,0,1,11,0l129,74.46a11,11,0,0,1,5.5,9.53V328.46a11,11,0,0,1-5.5,9.53l-129,74.46a11,11,0,0,1-11,0L58.56,338A11,11,0,0,1,53.06,328.46Z" transform="translate(-38.52 -77.8)"/><path class="cls-2" d="M41.66,335V173a11,11,0,0,1,5.5-9.53l140.36-81a11,11,0,0,1,11,0l140.36,81a11,11,0,0,1,5.5,9.53V335a11,11,0,0,1-5.5,9.53l-140.36,81a11,11,0,0,1-11,0l-140.36-81A11,11,0,0,1,41.66,335Z" transform="translate(-38.52 -77.8)"/><path class="cls-3" d="M175.06,168.75l5,8.08c21.84-11.82,43.12-12,63.83,0l5.61-8.08C223.25,155.56,198.46,155.92,175.06,168.75Z" transform="translate(-38.52 -77.8)"/><path class="cls-3" d="M183.81,183l4.81,7.63c16-8.61,31.5-8.74,46.62,0l5.41-8C221.44,171.94,200.9,172.6,183.81,183Z" transform="translate(-38.52 -77.8)"/><path class="cls-3" d="M193.15,197.4l4.7,7.92c9.76-6.09,19.27-6.25,28.53,0l5-8C219.62,189.35,203.61,189.89,193.15,197.4Z" transform="translate(-38.52 -77.8)"/><circle class="cls-3" cx="108.07" cy="236.15" r="13.34"/><circle class="cls-3" cx="196.38" cy="236.15" r="13.34"/><path class="cls-3" d="M152.48,287.11a6,6,0,0,1-6-6v-44H132a2.7,2.7,0,0,0-2.2,1.13l-0.19.26L102.87,276a5.25,5.25,0,0,0-1.29,4v6.75L99,288.66c-0.9.6-1.46,0.78-1.46,1.61V303A1.51,1.51,0,0,0,99,304.46h6.68a1.51,1.51,0,0,0,.34,0c0.42,0,.88,0,1.39,0h25.37a16.95,16.95,0,0,1,27.49,0H221a16.95,16.95,0,0,1,27.49,0H259a3,3,0,0,0,3-3V287.11H152.48ZM138.6,274.33H111.23l21-30.29h6.34v30.29Z" transform="translate(-38.52 -77.8)"/><rect class="cls-3" x="111.6" y="145.23" width="119.56" height="60.68" rx="3.59" ry="3.59"/></svg>