<svg id="Capa_1" data-name="Capa 1" xmlns="http://www.w3.org/2000/svg" viewBox="0 0 92.63 92.63"><defs><style>.cls-1{fill:#53a546;}.cls-2{fill:none;stroke:#d7df23;stroke-miterlimit:10;stroke-width:6.11px;}</style></defs><title>mantenimiento</title><rect class="cls-1" x="43.03" y="36.98" width="6.56" height="6.56" rx="3.28" ry="3.28"/><rect class="cls-1" x="43.41" y="45.55" width="5.91" height="11.74" rx="2.95" ry="2.95"/><path class="cls-1" d="M94.59,85.72l-0.5-9.17C86.62,76.37,85.54,73,89.84,67l-6.5-6.42c-5.41,3.65-8.28,2.1-8.83-4.17H65.26c-1.18,6.26-4.92,7.34-10.5,3.83L54,61.1l-6,5.67c3.56,5.55,2.52,9.3-3.73,10.54l0.09,9.25c6.27,0.49,7.85,3.35,4.26,8.79L55,101.78c6-4.36,9.36-3.32,9.63,4.15l9.17,0.41c-0.45-7.24,2.79-9.1,9.68-5.39l1,1,4.24-4.78L90,96.1l-0.66-.65C85.52,88.6,87.35,85.35,94.59,85.72Zm-26.21,10A15.33,15.33,0,1,1,83.72,80.37,15.33,15.33,0,0,1,68.39,95.7Z" transform="translate(-22.07 -34.05)"/><circle class="cls-2" cx="46.32" cy="46.32" r="43.26"/></svg>