<?xml version="1.0" encoding="utf-8"?>
<!-- Generator: Adobe Illustrator 19.2.1, SVG Export Plug-In . SVG Version: 6.00 Build 0)  -->
<svg version="1.1" id="Capa_1" xmlns="http://www.w3.org/2000/svg" xmlns:xlink="http://www.w3.org/1999/xlink" x="0px" y="0px"
	 viewBox="0 0 284.2 347.9" style="enable-background:new 0 0 284.2 347.9;" xml:space="preserve">
<style type="text/css">
	.st0{fill:#FFFFFF;}
</style>
<title>van</title>
<g id="_x32_sCD7H.tif">
	<g>
		<path class="st0" d="M192.8,38c19.3,0,38.5,0,57.7,0c8.5,0,15,5.4,16.6,13.4c1.6,8-3.6,15.8-11.6,17.4c-2,0.4-4,0.5-6,0.5
			c-17.5,0-35.1,0.1-52.6,0c-2.6,0-3.7,0.8-4.5,3.2C188.6,83,182.1,91.3,173,97.7c-0.8,0.6-1.7,1.2-3,2.2c2.4,0.8,4.4,1.4,6.3,2.1
			c33.2,13,54.1,36.9,62.5,71.5c1.8,7.3,2.4,15.1,2.5,22.7c0.3,25.6,0.2,51.3,0.1,77c0,13-7.1,23-18.9,25.8
			c-5.1,1.2-10.6,0.8-16,1.1c-3.4,0.1-6.9,0-10.9,0c0-1.6,0-3,0-4.4c0-13.8,0.3-27.7-0.2-41.5c-0.9-26.5-21.8-48.8-47.4-51.4
			c-27.8-2.8-52.6,14.2-59.1,41c-1.1,4.6-1.5,9.4-1.6,14.2c-0.2,12.6-0.1,25.3-0.1,37.9c0,1.3,0,2.6,0,3.5c-9,0-17.8,1-26.3-0.2
			c-11.6-1.7-19.4-12.6-19.5-24.9c-0.1-14.9,0-29.8,0-44.7c0-11.1,0-22.2,0-33.3c0.1-44.4,26.6-81.4,68.7-95.9
			c0.8-0.3,1.5-0.6,2.6-1c-0.5-0.5-0.9-1-1.4-1.3c-10-6.6-17-15.6-20.9-26.9c-0.8-2.3-2.1-2.4-4-2.4c-17.9,0-35.8,0-53.7,0
			c-6.7,0-12.2-2.1-15.5-8.3c-5.4-10.1,1.9-22.1,13.8-22.2c13-0.2,26,0,39,0c5.2,0,10.5-0.1,15.7,0.1c2.3,0.1,3.4-0.7,4.2-2.8
			c4.5-12.2,12.6-21.4,23.7-28.1c18.4-11.3,45.2-9,61.6,5.1c7.4,6.4,13,13.9,16.4,23C191.9,36.2,192.4,37.1,192.8,38z M171.2,55.3
			c0.4-17.3-12.8-31.3-29.9-31.6c-16.6-0.3-30.6,13.2-31,30c-0.4,16.5,13.2,30.6,30,31C157.3,85,170.8,72.2,171.2,55.3z"/>
		<path class="st0" d="M171.2,286.5c0,10.1,0.1,20.3,0,30.4c-0.2,15.6-10.6,28.2-24.9,30.6c-18.8,3.1-35.4-9.9-35.9-29
			c-0.5-21.2-0.5-42.5,0-63.7c0.4-16.7,14-29.5,30.3-29.6c16.3-0.1,29.8,12.9,30.4,29.8C171.5,265.5,171.2,276,171.2,286.5
			C171.2,286.5,171.2,286.5,171.2,286.5z"/>
	</g>
</g>
</svg>
