<svg id="Capa_1" data-name="Capa 1" xmlns="http://www.w3.org/2000/svg" viewBox="0 0 246.02 259.61"><defs><style>.cls-1{fill:#fff;}</style></defs><title>optidrivelogo</title><path class="cls-1" d="M194.56,350.83l-11.29-12.69,0.31-.49,47,7-27,38.81-0.55-.12c-0.36-3.94-.76-7.88-1.07-11.83-0.5-6.42.11-5.66-6.33-4.38-3.21.64-6.41,1.37-9.65,1.8a116.28,116.28,0,0,1-41.3-1.54q-59.23-13.51-86.11-68.17a113.66,113.66,0,0,1-11-39.09C43.79,222.95,55,190.72,80,163.25a118.23,118.23,0,0,1,53.43-33.61,120.3,120.3,0,0,1,37.48-5.82,127.9,127.9,0,0,1,32.19,5,119.93,119.93,0,0,1,37.07,17.62,123.15,123.15,0,0,1,33.35,34.93,120.28,120.28,0,0,1,16.41,40.19c2.32,11,3.57,22.22,2.53,33.48-1.44,15.67-5,30.82-12,45.06A125.8,125.8,0,0,1,258.31,332a7.9,7.9,0,0,1-9.17,2.06,7.35,7.35,0,0,1-4.35-7.81,10.88,10.88,0,0,1,2.68-5,108.83,108.83,0,0,0,21-31.84,107.52,107.52,0,0,0-45.86-135.87,106.4,106.4,0,0,0-72.29-12.24A107.66,107.66,0,0,0,70,206.72a103.12,103.12,0,0,0-7.88,43.16c1.2,31.76,13.95,58.25,38,79.09A104.33,104.33,0,0,0,141,350.64a110.53,110.53,0,0,0,41.65,3.21c3.94-.41,7.82-1.41,11.73-2.14Z" transform="translate(-46.81 -123.81)"/><path class="cls-1" d="M194.69,233.41c0.37-11.43,3.5-20.06,12.3-25.55A23.11,23.11,0,0,1,240.18,218c4.93,10.75,4.37,21.41-2.19,31.3-5,7.53-12.67,10.69-21.43,9.73-10.41-1.15-17.23-7.36-20.27-17.41A68.34,68.34,0,0,1,194.69,233.41Zm34-1.56a24.8,24.8,0,0,0-1.44-9,8.68,8.68,0,0,0-8.55-5.84c-4.23.23-6.68,2.84-8.12,6.48a22.41,22.41,0,0,0,0,16.55,9.26,9.26,0,0,0,8.51,6.33c3.78,0,6.87-2,8.34-6.09A24,24,0,0,0,228.64,231.85Z" transform="translate(-46.81 -123.81)"/><path class="cls-1" d="M159.65,227.27c2.06-.93,3.86-1.87,5.75-2.57,8.42-3.12,19.4,1.72,21.57,9.87,2.38,8.92.2,17.17-8.85,21.94-8.35,4.4-19.6,3.73-26.48-3.16a19.65,19.65,0,0,1-5.11-8.2c-2.94-10.86-2.77-21.6,3.63-31.45,3.54-5.44,8.88-8.12,15.14-8.94a27.73,27.73,0,0,1,19.26,4.17c1.26,0.82,1.68,1.47.62,2.9-1.89,2.54-3.53,5.27-5.38,8.08-5.15-3.34-10.35-5.4-16-2.08C160.92,219.53,159.36,223.39,159.65,227.27Zm6.89,20.84c4.47,0,7.56-2.82,7.6-6.93,0-4.29-3.26-7.42-7.8-7.38-4.27,0-7.54,3.13-7.53,7.13S162.09,248.11,166.53,248.11Z" transform="translate(-46.81 -123.81)"/><path class="cls-1" d="M119.46,217.38c-1.62-.19-2.55-0.38-3.48-0.39-4.59,0-9.19-.07-13.78,0-1.78,0-2.53-.61-2.45-2.44,0.1-2.37.07-4.76,0-7.13,0-1.48.61-2,2.07-2q16.85,0,33.71,0c1.32,0,2.05.4,1.93,1.82a4.48,4.48,0,0,0,0,.49c0.2,7.88.2,7.87-5.87,12.93-1.64,1.36-3.24,2.76-4.84,4.18s-1.55,2,.57,2.7c3.84,1.23,7.32,3,9.29,6.75,3.4,6.41,2.45,17.41-7.18,22.3-10.06,5.11-24.53,2.35-32.1-5.45-0.33-.34-0.6-0.74-0.86-1.06l8.65-8.69a43,43,0,0,0,4.19,3.1c3.56,2.05,7.3,3.38,11.47,1.92,2.61-.92,3.94-2.77,3.81-5.34a5.09,5.09,0,0,0-4.42-4.88,57.44,57.44,0,0,0-8.05-.71c-1.79,0-2.78-.58-3-2.4a10.4,10.4,0,0,0-.62-2.12,3.67,3.67,0,0,1,1.27-4.55c2.71-2.25,5.26-4.69,7.86-7.06C118.09,218.92,118.49,218.43,119.46,217.38Z" transform="translate(-46.81 -123.81)"/><path class="cls-1" d="M250.35,197.9a7.61,7.61,0,0,1,7.78,7.46,7.92,7.92,0,0,1-7.91,7.69,7.57,7.57,0,0,1-7.68-7.56A7.43,7.43,0,0,1,250.35,197.9Zm4.67,7.81a5,5,0,0,0-4.63-5.32,4.76,4.76,0,0,0-4.89,4.75,4.68,4.68,0,0,0,4.37,5.18A4.54,4.54,0,0,0,255,205.71Z" transform="translate(-46.81 -123.81)"/><path class="cls-1" d="M117.55,279.68c0,7.6-4.61,12.22-11.39,12.22s-10.91-5.2-10.91-11.8c0-7,4.44-12.15,11.29-12.15C113.66,268,117.55,273.28,117.55,279.68Zm-16.76.31c0,4.54,2.13,7.74,5.64,7.74s5.57-3.37,5.57-7.88c0-4.16-2-7.74-5.61-7.74S100.79,275.49,100.79,280Z" transform="translate(-46.81 -123.81)"/><path class="cls-1" d="M121,280.34c0-2.2-.07-4.09-0.14-5.64h4.54L125.6,277h0.07a6.46,6.46,0,0,1,5.61-2.72c3.68,0,7,3.2,7,8.57,0,6.13-3.89,9-7.64,9a5.23,5.23,0,0,1-4.37-1.93h-0.07v8.36H121v-18Zm5.23,4a5.2,5.2,0,0,0,.1,1.1,3.17,3.17,0,0,0,3.06,2.48c2.27,0,3.61-1.89,3.61-4.75,0-2.68-1.2-4.71-3.54-4.71a3.29,3.29,0,0,0-3.13,2.65,4,4,0,0,0-.1.93v2.31Z" transform="translate(-46.81 -123.81)"/><path class="cls-1" d="M147.38,269.88v4.82h3.75v3.85h-3.75v6.09c0,2,.48,3,2.06,3a8.49,8.49,0,0,0,1.55-.14l0,4a10.26,10.26,0,0,1-3.41.45,5.44,5.44,0,0,1-3.92-1.44c-1-1-1.45-2.62-1.45-5v-6.88H140v-3.85h2.24V271Z" transform="translate(-46.81 -123.81)"/><path class="cls-1" d="M159.56,270a2.63,2.63,0,0,1-2.82,2.61,2.63,2.63,0,1,1,0-5.26A2.62,2.62,0,0,1,159.56,270Zm-5.4,21.5V274.69h5.23v16.83h-5.23Z" transform="translate(-46.81 -123.81)"/><path class="cls-1" d="M163.76,268.64a46.83,46.83,0,0,1,7.09-.48c4.4,0,7.26.79,9.5,2.48,2.41,1.79,3.92,4.64,3.92,8.74,0,4.44-1.62,7.5-3.85,9.39-2.44,2-6.16,3-10.7,3a45.42,45.42,0,0,1-6-.34V268.64ZM169,287.56a9.62,9.62,0,0,0,1.82.1c4.75,0,7.85-2.58,7.85-8.12,0-4.82-2.79-7.36-7.29-7.36a10.87,10.87,0,0,0-2.37.21v15.17Z" transform="translate(-46.81 -123.81)"/><path class="cls-1" d="M187.68,280.23c0-2.48-.07-4.09-0.14-5.54H192l0.17,3.1h0.14a4.94,4.94,0,0,1,4.54-3.47,5.42,5.42,0,0,1,1.1.07v4.92a7.45,7.45,0,0,0-1.41-.14,3.36,3.36,0,0,0-3.58,2.65,6.16,6.16,0,0,0-.1,1.17v8.53h-5.23V280.23Z" transform="translate(-46.81 -123.81)"/><path class="cls-1" d="M206.15,270a2.63,2.63,0,0,1-2.82,2.61,2.63,2.63,0,1,1,0-5.26A2.62,2.62,0,0,1,206.15,270Zm-5.4,21.5V274.69H206v16.83h-5.23Z" transform="translate(-46.81 -123.81)"/><path class="cls-1" d="M214.07,274.69l2.27,7.81a39,39,0,0,1,1,4.09h0.1c0.28-1.38.55-2.65,0.93-4.09l2.17-7.81H226l-6.26,16.83h-5.23l-6.12-16.83h5.68Z" transform="translate(-46.81 -123.81)"/><path class="cls-1" d="M231.93,284.78c0.17,2.17,2.3,3.2,4.75,3.2a14.83,14.83,0,0,0,4.65-.69l0.69,3.54a16.6,16.6,0,0,1-6.09,1c-5.71,0-9-3.3-9-8.57,0-4.27,2.65-9,8.5-9,5.44,0,7.5,4.23,7.5,8.4a12.48,12.48,0,0,1-.17,2.06H231.93Zm6.16-3.58c0-1.27-.55-3.41-3-3.41-2.2,0-3.1,2-3.24,3.41h6.19Z" transform="translate(-46.81 -123.81)"/></svg>