<svg id="Capa_1" data-name="Capa 1" xmlns="http://www.w3.org/2000/svg" viewBox="0 0 309 352.42"><defs><style>.cls-1{fill:#fab325;}.cls-2{fill:none;stroke:#fab325;stroke-miterlimit:10;stroke-width:6.29px;}.cls-3{fill:#fff;}</style></defs><title>seguridad(icono)</title><path class="cls-1" d="M53.06,328.46V179.55a11,11,0,0,1,5.5-9.53l129-74.46a11,11,0,0,1,11,0l129,74.46a11,11,0,0,1,5.5,9.53V328.46a11,11,0,0,1-5.5,9.53l-129,74.46a11,11,0,0,1-11,0L58.56,338A11,11,0,0,1,53.06,328.46Z" transform="translate(-38.52 -77.8)"/><path class="cls-2" d="M41.66,335V173a11,11,0,0,1,5.5-9.53l140.36-81a11,11,0,0,1,11,0l140.36,81a11,11,0,0,1,5.5,9.53V335a11,11,0,0,1-5.5,9.53l-140.36,81a11,11,0,0,1-11,0l-140.36-81A11,11,0,0,1,41.66,335Z" transform="translate(-38.52 -77.8)"/><g id="QX5ALg"><path class="cls-3" d="M191.33,166c1.47,0.28,2.94.54,4.4,0.83a41.44,41.44,0,0,1,33.49,40.26,41.35,41.35,0,0,1-32.91,40.86c-12.14,2.44-23.43.15-33.33-7.44-12.11-9.29-17.69-21.77-16.34-36.92,1.22-13.74,8.11-24.29,19.85-31.6a39.34,39.34,0,0,1,15.35-5.49c0.83-.12,1.64-0.33,2.47-0.49h7ZM168,224a13,13,0,0,0,6.94,7.8c9.29,4.46,18.45,4.31,27.22-1.37A10.62,10.62,0,0,0,207,224H168Z" transform="translate(-38.52 -77.8)"/><path class="cls-3" d="M254.34,342c-2-.91-4-1.8-5.93-2.75a43.52,43.52,0,0,1-16-13.31c-6.42-8.6-9.58-18.44-10.91-29-0.31-2.46-.49-4.94-0.69-7.41-0.24-3,1.06-4.26,4.06-4.43a76.48,76.48,0,0,0,9.77-.88,39.09,39.09,0,0,0,16.63-7.76L252,276c2.43-1.81,3.51-1.82,5.87.06a40.61,40.61,0,0,0,19.5,8.73,57.48,57.48,0,0,0,7.14.46c3.56,0.08,4.59,1.12,4.45,4.67a72.41,72.41,0,0,1-5.13,24.76,47.32,47.32,0,0,1-14.15,19.42,43.74,43.74,0,0,1-12.39,7.05,16.63,16.63,0,0,0-1.83.93h-1.13Z" transform="translate(-38.52 -77.8)"/><path class="cls-3" d="M250.1,268.44c-6.39,5.24-13.29,9.17-21.75,9.53a42.88,42.88,0,0,0-6.43.4,10.24,10.24,0,0,0-8.36,10.9c0.49,9.69,2,19.18,5.76,28.21,0.14,0.34.23,0.7,0.41,1.26l-9.45.79a255.49,255.49,0,0,1-35.53.5c-9.25-.54-18.48-1.55-27.68-2.61a104.42,104.42,0,0,1-20.37-4.67c-1.69-.55-3.36-1.18-5-1.88a5.84,5.84,0,0,1-3.88-5.68c0.1-6.74,0-13.51.69-20.2,0.73-7,4-13.21,8.5-18.65A39.59,39.59,0,0,1,148.28,253a26,26,0,0,1,4.84-.82,4.47,4.47,0,0,1,2.6.79,55.44,55.44,0,0,0,31.72,10.24,52,52,0,0,0,24-5.41c2.92-1.46,5.64-3.31,8.51-4.88a4.94,4.94,0,0,1,2.76-.72,39.5,39.5,0,0,1,27.21,15.92A2.08,2.08,0,0,1,250.1,268.44Z" transform="translate(-38.52 -77.8)"/></g></svg>