<?xml version="1.0" encoding="utf-8"?>
<!-- Generator: Adobe Illustrator 19.2.1, SVG Export Plug-In . SVG Version: 6.00 Build 0)  -->
<svg version="1.1" xmlns="http://www.w3.org/2000/svg" xmlns:xlink="http://www.w3.org/1999/xlink" x="0px" y="0px"
	 viewBox="0 0 1008 612" style="enable-background:new 0 0 1008 612;" xml:space="preserve">
<style type="text/css">
	.st0{opacity:0.73;fill:#CADB33;}
	.st1{fill:#FFFFFF;}
	.st2{display:none;}
	.st3{display:inline;}
	.st4{fill:none;stroke:#FFFFFF;stroke-width:20.8165;stroke-miterlimit:10;}
</style>
<g id="Capa_1">
	<g>
		<circle class="st0" cx="504" cy="304.5" r="220.9"/>
		<g id="QX5ALg">
			<path class="st1" d="M513,155.5c2.5,0.5,5,0.9,7.4,1.4c32.7,6.4,56.3,34.8,56.7,68.1c0.3,33.4-23,62.3-55.7,69.1
				c-20.5,4.1-39.6,0.3-56.4-12.6c-20.5-15.7-29.9-36.8-27.6-62.5c2.1-23.2,13.7-41.1,33.6-53.5c7.9-4.9,16.8-8,26-9.3
				c1.4-0.2,2.8-0.6,4.2-0.8L513,155.5L513,155.5z M473.5,253.6c1.9,5.8,6.2,10.6,11.7,13.2c15.7,7.5,31.2,7.3,46.1-2.3
				c4.1-2.4,7-6.3,8.2-10.9H473.5z"/>
			<path class="st1" d="M619.6,453.3c-3.4-1.5-6.8-3-10-4.7c-10.7-5.2-20-12.9-27.1-22.5c-10.9-14.6-16.2-31.2-18.5-49.1
				c-0.5-4.2-0.8-8.4-1.2-12.5c-0.4-5.1,1.8-7.2,6.9-7.5c5.5-0.1,11.1-0.6,16.5-1.5c10.3-2.1,19.9-6.6,28.1-13.1l1.2-0.8
				c4.1-3.1,5.9-3.1,9.9,0.1c9.5,7.8,20.9,12.9,33,14.8c4,0.5,8,0.8,12.1,0.8c6,0.1,7.8,1.9,7.5,7.9c-0.4,14.4-3.4,28.5-8.7,41.9
				c-5,12.8-13.3,24.2-23.9,32.9c-6.3,5.1-13.4,9.1-21,11.9c-1.1,0.5-2.1,1-3.1,1.6h-1.9L619.6,453.3z"/>
			<path class="st1" d="M612.5,328.8c-10.8,8.9-22.5,15.5-36.8,16.1c-3.6,0-7.3,0.2-10.9,0.7c-8.8,1.6-14.9,9.6-14.1,18.4
				c0.8,16.4,3.4,32.5,9.7,47.7c0.2,0.6,0.4,1.2,0.7,2.1l-16,1.3c-20,1.7-40.1,2-60.1,0.8c-15.7-0.9-31.3-2.6-46.8-4.4
				c-11.7-1.5-23.3-4.1-34.5-7.9c-2.9-0.9-5.7-2-8.5-3.2c-4-1.4-6.7-5.3-6.6-9.6c0.2-11.4,0-22.9,1.2-34.2
				c1.2-11.8,6.8-22.4,14.4-31.6c9.2-11.2,21.9-19.2,36-22.6c2.7-0.7,5.4-1.2,8.2-1.4c1.6,0,3.1,0.4,4.4,1.3
				c15.7,11.1,34.4,17.2,53.7,17.3c14.1,0.2,28-2.9,40.6-9.2c4.9-2.5,9.5-5.6,14.4-8.3c1.4-0.9,3-1.3,4.7-1.2
				c18.4,2.2,35.1,12,46,26.9C612.3,328.5,612.4,328.6,612.5,328.8z"/>
		</g>
	</g>
</g>
<g id="Capa_2" class="st2">
	<g class="st3">
		<circle class="st0" cx="504" cy="304.5" r="220.9"/>
		<g>
			<path class="st1" d="M518.2,378.6l-14.6-171.8l-14,171.9c-11.2,5.3-18.9,16.7-18.9,29.9c0,18.3,14.9,33.2,33.2,33.2
				c18.3,0,33.2-14.9,33.2-33.2C537.2,395.4,529.4,384,518.2,378.6z"/>
			<rect x="493.8" y="131.4" class="st1" width="20.4" height="51.5"/>
			
				<rect x="574.4" y="157.7" transform="matrix(0.866 0.5 -0.5 0.866 167.8915 -268.3098)" class="st1" width="20.4" height="42.9"/>
			<rect x="622" y="220.7" transform="matrix(0.5 0.866 -0.866 0.5 525.7971 -426.4167)" class="st1" width="20.4" height="42.9"/>
			
				<rect x="413.2" y="157.7" transform="matrix(-0.866 0.5 -0.5 -0.866 879.608 122.5798)" class="st1" width="20.4" height="42.9"/>
			
				<rect x="365.6" y="220.7" transform="matrix(-0.5 0.866 -0.866 -0.5 773.4246 37.7536)" class="st1" width="20.4" height="42.9"/>
		</g>
	</g>
</g>
<g id="Capa_3" class="st2">
	<g class="st3">
		<circle class="st0" cx="504" cy="304.5" r="220.9"/>
		<g>
			<rect x="373.9" y="334.2" class="st1" width="49.9" height="57.6"/>
			<rect x="442.1" y="270.7" class="st1" width="49.9" height="121.1"/>
			<rect x="513.2" y="291.3" class="st1" width="49.9" height="100.5"/>
			<rect x="584.2" y="178.7" class="st1" width="49.9" height="213.2"/>
		</g>
	</g>
</g>
<g id="Capa_4" class="st2">
	<g class="st3">
		<circle class="st0" cx="504" cy="304.5" r="220.9"/>
		<polygon class="st1" points="624.5,261.2 592.6,229.3 465.2,356.7 415.4,306.8 383.5,338.7 433.3,388.6 433.3,388.6 465.2,420.5 
			465.2,420.5 465.3,420.5 497.2,388.6 497.1,388.6 		"/>
	</g>
</g>
<g id="Capa_5" class="st2">
	<g class="st3">
		<circle class="st0" cx="504" cy="304.5" r="220.9"/>
		<g id="EVQM0B_1_">
			<g>
				<path class="st1" d="M484.4,161.9c13.1,0,26.2,0,39.3,0c0.5,3,1,5.9,1.5,8.9c1.7,10.2,3.4,20.3,5,30.5c0.4,2.3,1.1,3.6,3.6,4
					c2.6,0.5,5.3,1.2,7.7,2.2c7.9,3.5,15.6,7.2,23.5,10.7c0.7,0.3,2,0.4,2.6,0c6.6-4.6,13.1-9.3,19.7-13.9c4.7-3.3,9.4-6.7,14-9.9
					c9.4,9.3,18.6,18.5,27.9,27.8c-0.5,0.7-0.9,1.5-1.4,2.3c-7.4,10.4-14.8,20.7-22.2,31c-0.8,1.1-1.1,1.8-0.3,3.1
					c5.9,9.9,10.5,20.4,13.2,31.6c0.5,2,1.6,2.7,3.4,3c13.3,2.2,26.6,4.4,39.9,6.6c0,13.1,0,26.2,0,39.3c-3.1,0.5-6.3,1.1-9.4,1.6
					c-10.1,1.7-20.2,3.4-30.3,4.9c-2.2,0.3-3.3,1.3-3.8,3.5c-0.6,2.9-1.3,5.8-2.5,8.4c-3.4,7.6-7,15.2-10.5,22.8
					c-0.3,0.7-0.4,2,0,2.6c4.6,6.6,9.3,13.1,14,19.7c3.4,4.7,6.7,9.4,10,14c-9.4,9.4-18.6,18.6-27.9,27.9c-0.7-0.4-1.5-0.9-2.2-1.4
					c-10.4-7.4-20.7-14.8-31.1-22.2c-1.1-0.8-1.9-1.1-3.1-0.3c-9.9,5.9-20.4,10.5-31.6,13.2c-2,0.5-2.7,1.6-3,3.4
					c-2.2,13.3-4.4,26.6-6.6,39.9c-13.1,0-26.2,0-39.3,0c-0.5-2.9-1-5.8-1.5-8.7c-1.7-10.3-3.4-20.5-5-30.8
					c-0.4-2.3-1.1-3.6-3.6-4.1c-2.8-0.5-5.6-1.3-8.2-2.4c-7.7-3.4-15.3-7.1-23-10.6c-0.7-0.3-2-0.4-2.6,0c-6.6,4.6-13.1,9.3-19.7,14
					c-4.7,3.3-9.4,6.7-14,10c-9.4-9.3-18.6-18.5-27.9-27.8c0.4-0.7,0.8-1.4,1.3-2.1c7.4-10.4,14.9-20.9,22.4-31.3
					c0.8-1.1,1.1-1.9,0.3-3.1c-5.9-9.8-10.5-20.2-13.1-31.4c-0.5-2.2-1.7-2.9-3.7-3.3c-13.2-2.1-26.5-4.4-39.7-6.6
					c0-13.1,0-26.2,0-39.3c13.3-2.2,26.6-4.4,39.9-6.6c1.8-0.3,2.9-1,3.4-3c2.6-11.3,7.3-21.7,13.1-31.7c0.4-0.7,0.3-2.1-0.1-2.8
					c-3.2-4.7-6.6-9.3-9.9-13.9c-4.7-6.5-9.3-13.1-13.9-19.5c9.3-9.4,18.5-18.6,27.8-27.9c0.6,0.4,1.4,0.8,2,1.3
					c10.4,7.4,20.9,14.9,31.3,22.4c1.2,0.9,2,1,3.3,0.2c9.8-5.8,20.1-10.3,31.2-13c2-0.5,2.9-1.4,3.2-3.5
					C479.9,188.5,482.2,175.2,484.4,161.9z M582.8,319.6c0.2-43.3-35.2-78.7-78.6-78.9c-43.5-0.1-78.8,35.1-78.9,78.8
					c-0.1,43.3,35.3,78.7,78.8,78.7C547.4,398.4,582.6,363.2,582.8,319.6z"/>
			</g>
		</g>
		<g>
			<path class="st1" d="M515,272.1c0-6.1-4.9-11-11-11s-11,4.9-11,11c0,0.5,0,0.9,0.1,1.4l4.4,68.8c0,3.6,2.9,6.5,6.5,6.5
				c3.6,0,6.5-2.9,6.5-6.5l4.4-68.8C515,273,515,272.6,515,272.1z"/>
			<circle class="st1" cx="504" cy="368.9" r="9"/>
		</g>
	</g>
</g>
<g id="Capa_6" class="st2">
	<g class="st3">
		<circle class="st0" cx="504" cy="304.5" r="220.9"/>
		<g>
			<path class="st1" d="M521.1,255.6l0-96.7c0-8.2-6.7-14.9-14.9-14.9l0,0c-8.2,0-14.9,6.7-14.9,14.9l0,96.7
				c-11.8,5.6-19.9,17.6-19.9,31.5c0,19.2,15.6,34.9,34.9,34.9c19.2,0,34.9-15.6,34.9-34.9C541,273.2,532.9,261.2,521.1,255.6z"/>
			<circle class="st1" cx="600" cy="209.5" r="16"/>
			<circle class="st1" cx="647.1" cy="303.4" r="16"/>
			<circle class="st1" cx="604.5" cy="403.3" r="16"/>
			<circle class="st1" cx="506.2" cy="449" r="16"/>
			<circle class="st1" cx="408" cy="212.3" r="16"/>
			<circle class="st1" cx="360.9" cy="306.2" r="16"/>
			<circle class="st1" cx="403.5" cy="406" r="16"/>
		</g>
	</g>
</g>
<g id="Capa_7" class="st2">
	<g class="st3">
		<circle class="st0" cx="504" cy="304.5" r="220.9"/>
		<path class="st1" d="M504,165c-58,0-105.1,47.1-105.1,105.1c0,58,105.1,173.7,105.1,173.7s105.1-115.7,105.1-173.7
			C609.1,212.1,562,165,504,165z M504,304.5c-23.7,0-42.9-19.2-42.9-42.9s19.2-42.9,42.9-42.9c23.7,0,42.9,19.2,42.9,42.9
			S527.7,304.5,504,304.5z"/>
	</g>
</g>
<g id="Capa_8" class="st2">
	<g class="st3">
		<circle class="st0" cx="504" cy="304.5" r="220.9"/>
		<g>
			<circle class="st4" cx="504" cy="304.5" r="182.6"/>
			<polygon class="st1" points="590.4,228.9 405.9,312.9 492.5,326.8 506.4,413.5 			"/>
			<g>
				<rect x="650.6" y="294.1" class="st1" width="31.5" height="20.8"/>
				<rect x="330.1" y="294.1" class="st1" width="31.5" height="20.8"/>
			</g>
			<g>
				
					<rect x="488.3" y="454.3" transform="matrix(4.478355e-11 1 -1 4.478355e-11 968.7198 -39.2802)" class="st1" width="31.5" height="20.8"/>
				
					<rect x="488.3" y="133.8" transform="matrix(4.484128e-11 1 -1 4.484128e-11 648.2203 -359.7798)" class="st1" width="31.5" height="20.8"/>
			</g>
		</g>
	</g>
</g>
<g id="Capa_9" class="st2">
	<g class="st3">
		<circle class="st0" cx="504" cy="304.5" r="220.9"/>
		<g>
			<rect x="376.1" y="210.3" class="st1" width="255.9" height="44.4"/>
			<rect x="376.1" y="282.3" class="st1" width="255.9" height="44.4"/>
			<rect x="376.1" y="354.2" class="st1" width="255.9" height="44.4"/>
		</g>
	</g>
</g>
<g id="Capa_10" class="st2">
	<g class="st3">
		<circle class="st0" cx="504" cy="304.5" r="220.9"/>
		<g>
			<path class="st1" d="M530.6,189.6c0-14.7-11.9-26.6-26.6-26.6c-14.7,0-26.6,11.9-26.6,26.6c0,1.1,0.1,2.2,0.2,3.3l10.7,166.7
				c0,8.7,7,15.7,15.7,15.7c8.7,0,15.7-7,15.7-15.7l10.7-166.7C530.6,191.8,530.6,190.7,530.6,189.6z"/>
			<circle class="st1" cx="504" cy="424.2" r="21.8"/>
		</g>
	</g>
</g>
</svg>
