<svg id="Capa_1" data-name="Capa 1" xmlns="http://www.w3.org/2000/svg" viewBox="0 0 326.64 384.41"><defs><style>.cls-1{fill:#fff;}</style></defs><title>trailer</title><g id="onNCpm"><path class="cls-1" d="M314.48,427.07H278.25c-6.94-2.91-9.27-8.34-8.63-15.51,0.21-2.46,0-4.91,0-7.37,0-4,0-4-4-4H117a12.49,12.49,0,0,0-3.68.09,3.36,3.36,0,0,0-2.09,2.09,57.15,57.15,0,0,0-.06,9.21c0.61,7.17-1.68,12.62-8.64,15.52H66.4c-6.91-2.92-9.35-8.27-8.65-15.5,0.26-2.74-.09-5.53.08-8.28,0.14-2.35-.54-3.24-3.07-3.17-6.85.17-13.71,0.09-20.56,0-5.07,0-7-2-7-7.08q-0.07-14.58,0-29.16c0-5,2.09-7,7.16-7.1,2.64-.06,5.28,0,8.3,0v-3.94c0-17.7,0-35.41,0-53.1a29.06,29.06,0,0,1,.88-7.88c3.22-11.13,11.37-17.1,23.14-17.27,5.13-.08,5.13-0.08,5.13-5.29V134.57c0-24.66.06-49.32-.06-74,0-4,1.37-6.72,4.81-8.81,4.71-2.85,9.21-6.06,13.79-9.11H94c3,1.87,3.82,4.61,3.8,8.07-0.12,20.36-.06,40.72,0,61.08,0,1.26.15,2.54,0.24,3.8a38.51,38.51,0,0,0,3.51-7.55c6.75-18.16,20.63-28.12,39.91-28.18q49-.17,97.91,0c17.41,0.08,30.32,7.92,38,23.7,1.9,3.89,3.24,8.05,4.83,12.08a8.19,8.19,0,0,0,.83-3.87c0-20.36.07-40.72,0-61.08,0-3.46.79-6.19,3.81-8.06h3.68c4.15,2.79,8.11,5.94,12.51,8.27,5,2.65,6.14,6.49,6.14,11.81q-0.19,103.76-.07,207.54c0,4.35,0,4.05,4.21,4.44,4,0.37,8.31.7,11.86,2.36,9.16,4.3,13.09,12.18,13.11,22.11q0,26.86,0,53.72v4c3,0,5.66,0,8.3,0,5.09,0.1,7.13,2.06,7.15,7.07q0.08,14.58,0,29.16c0,5.11-2,7-7,7.07-6.85,0-13.71.12-20.56,0-2.52-.06-3.21.83-3.07,3.17,0.17,2.75-.18,5.53.08,8.28C323.8,418.79,321.41,424.17,314.48,427.07Zm-39.3-276.79H105.81v56.49H275.18V150.28ZM190.44,344c12.58,0,25.18,0,37.74,0,8.31,0,12.94-4.6,13-12.94q0.09-35.13,0-70.26c0-8.67-4.42-13-13.15-13q-37.59,0-75.17,0c-8.72,0-13.09,4.3-13.1,13q-0.07,35,0,70c0,8.72,4.59,13.2,13.3,13.21Q171.74,344,190.44,344Zm-98.3-25.23h0c-3.68,0-7.37-.17-11.05,0a10.73,10.73,0,0,0-10.19,10.4c-0.28,5.31,3.53,10.76,9,11.13a163.58,163.58,0,0,0,23.86,0c5.69-.44,9.1-5.69,8.73-11.49a10.61,10.61,0,0,0-10.18-10C98.89,318.66,95.52,318.79,92.14,318.79Zm197,0h0c-3.38,0-6.75-.12-10.13,0A10.65,10.65,0,0,0,268.42,329c-0.3,6,3.49,11.05,9.57,11.43a186.49,186.49,0,0,0,22.35,0c5.77-.33,9.87-5.58,9.64-11.18a10.79,10.79,0,0,0-10.44-10.44c-3.49-.21-7-0.07-10.43-0.07h0Z" transform="translate(-27.11 -42.66)"/><path class="cls-1" d="M190.44,266.85h-35a23,23,0,0,1-3.36-.14,5.37,5.37,0,0,1-4.91-5.05,5.59,5.59,0,0,1,4.3-5.91,16.12,16.12,0,0,1,3.94-.41q35,0,69.92,0a16.44,16.44,0,0,1,3.94.42,5.53,5.53,0,0,1,4.19,5.67,5.25,5.25,0,0,1-4.41,5.18,17.1,17.1,0,0,1-3.68.25h-35Z" transform="translate(-27.11 -42.66)"/><path class="cls-1" d="M190.38,278.5c12.16,0,24.33,0,36.49,0,4.57,0,7.75,3.48,6.28,7.14-0.65,1.63-2.52,3-4.13,3.93-1,.61-2.59.38-3.91,0.38H155.5a20.88,20.88,0,0,1-3.68-.25,5.61,5.61,0,0,1-4.69-5.59,6,6,0,0,1,4.61-5.42,18,18,0,0,1,3.35-.2h35.3Z" transform="translate(-27.11 -42.66)"/><path class="cls-1" d="M190.37,336.15c-12,0-23.95.1-35.88-.1a9.51,9.51,0,0,1-5.89-2.32c-2.9-2.77-1.26-7.69,2.65-8.68a17.57,17.57,0,0,1,4.26-.36q34.66,0,69.31,0a23.28,23.28,0,0,1,4,.25,5.31,5.31,0,0,1,4.7,5.53,5.77,5.77,0,0,1-4.8,5.53,20.52,20.52,0,0,1-3.36.17h-35Z" transform="translate(-27.11 -42.66)"/><path class="cls-1" d="M190.74,301.64H226.3c2.54,0,4.91.25,6.34,2.81a5.53,5.53,0,0,1-4,8.4,20.4,20.4,0,0,1-3.07.14h-72c-3.92-.15-6.34-2.24-6.43-5.53s2.46-5.75,6.5-5.77C166,301.6,178.38,301.64,190.74,301.64Z" transform="translate(-27.11 -42.66)"/></g></svg>