<?xml version="1.0" encoding="utf-8"?>
<!-- Generator: Adobe Illustrator 19.2.1, SVG Export Plug-In . SVG Version: 6.00 Build 0)  -->
<svg version="1.1" id="Capa_1" xmlns="http://www.w3.org/2000/svg" xmlns:xlink="http://www.w3.org/1999/xlink" x="0px" y="0px"
	 viewBox="0 0 284.2 347.9" style="enable-background:new 0 0 284.2 347.9;" xml:space="preserve">
<style type="text/css">
	.st0{fill:#FFFFFF;}
</style>
<title>van</title>
<title>bus</title>
<g id="_x33_eemoq_1_">
	<g>
		<path class="st0" d="M265.3,145.7c5.9,0,10.8-0.1,15.7,0c7.6,0.1,11,3.4,11,11.1c0.1,12.4,0.1,24.7,0,37.1c0,7.8-3.3,11-10.9,11.1
			c-4.9,0.1-9.8,0-15.2,0c0,27.7,0,55,0,82.6c2.1,0.3,4.2,0.6,6.5,0.9c0,9.5,0,19,0,29.1c-6.1,0-12,0-18.4,0c0,10.3,0,20,0,30
			c-12.4,0-24.3,0-37,0c0-9.6,0-19.4,0-29.6c-50.1,0-99.4,0-149.3,0c0,9.9,0,19.5,0,29.6c-12.4,0-24.3,0-37,0c0-9.7,0-19.5,0-29.9
			c-6.6,0-12.5,0-18.8,0c0-10.1,0-19.6,0-29.3c2.1-0.2,4.2-0.4,6.6-0.7c0-27.4,0-54.7,0-82.7c-5.3,0-10.3,0.1-15.4,0
			c-7.4-0.1-10.7-3.3-10.8-10.7c-0.1-12.5-0.1-25.1,0-37.6c0.1-7.6,3.4-10.8,11.2-10.9c4.9-0.1,9.8,0,15.3,0
			c0.1-48.9,0.1-97,0.1-145.5c82.3,0,164,0,246.4,0C265.3,48.5,265.3,96.6,265.3,145.7z M142.1,194.4c30,0,60.1,0,90.1,0
			c12,0,17.9-6,18-17.9c0-17.1,0-34.3,0-51.4c0-12.3-5.9-18.3-18.1-18.3c-59.9,0-119.8,0-179.6,0c-12.3,0-18.2,5.9-18.2,18.1
			c0,17,0,33.9,0,50.9c0,12.7,5.8,18.5,18.4,18.5C82.4,194.4,112.3,194.4,142.1,194.4z M141.7,277.9c32,0,64,0,96,0
			c9.6,0,12.5-3,12.6-12.7c0-1.2,0-2.5,0-3.7c0-10.8-2.6-13.5-13.4-13.5c-61.8,0-123.7,0-185.5,0c-15.9,0-17.1,1.3-17.1,17.2
			c0,9.8,3,12.7,12.6,12.7C78.4,277.9,110,277.9,141.7,277.9z M227.6,232.6L227.6,232.6c3.3,0,6.7,0,10,0c9.7,0,12.5-2.9,12.6-12.7
			c0-1.6,0.1-3.2,0-4.8c-0.3-6.5-3.8-10-10.3-10.2c-6-0.1-12,0-18,0c-15,0-17,2.1-16.5,17.3c0,0.4,0,0.7,0,1.1
			c0.5,5.8,3.7,9,9.5,9.3C219.1,232.7,223.3,232.6,227.6,232.6z M56.4,232.6L56.4,232.6c2.6,0,5.3,0,7.9,0
			c12.6,0,14.7-2.1,14.6-14.8c0-0.9,0-1.8,0-2.6c-0.3-6.6-3.6-10-10.3-10.2c-6-0.1-12,0-18,0c-14.9,0-17.1,2.3-16.5,17.3
			c0,0.4,0,0.7,0,1.1c0.5,5.7,3.8,9,9.5,9.3C48,232.7,52.2,232.6,56.4,232.6z"/>
	</g>
</g>
</svg>
