<?xml version="1.0" encoding="utf-8"?>
<!-- Generator: Adobe Illustrator 19.2.1, SVG Export Plug-In . SVG Version: 6.00 Build 0)  -->
<svg version="1.1" id="Capa_1" xmlns="http://www.w3.org/2000/svg" xmlns:xlink="http://www.w3.org/1999/xlink" x="0px" y="0px"
	 viewBox="0 0 284.2 347.9" style="enable-background:new 0 0 284.2 347.9;" xml:space="preserve">
<style type="text/css">
	.st0{fill:#FFFFFF;}
</style>
<title>van</title>
<path class="st0" d="M276.9,293.5c-0.9-70-1.7-140.1-3-210.1c-0.4-22.3-2.6-44.6-4.2-66.9c-1-14.1-2.6-15.2-16.3-15.2
	c-3.9,0-7.8,0-10.5,0c-7.2-9.2,6.9-26.9-13.8-28c-5.8-0.3-15.3-0.9-16.9,2c-3.9,7.3-4.2,16.6-6.1,26c-3,0-6.6,0-10.2,0
	c-55,0-110.1,0-165.2,0c-13.3,0-15.1,1.3-16,14.5c-2.3,34.9-5.7,69.8-6.3,104.8c-1.1,57.5-0.7,114.9-0.9,172.2
	c0,2.6,0.4,5.1,0.8,8.9c9.2,0,18,0,27.6,0c0,11.8-0.1,22.5,0,33c0.1,11.7,1.7,13,13.6,13.2c2.3,0,4.7-0.1,7,0
	c8.5,0.4,12.2-3.3,12-11.9c-0.3-11.2-0.1-22.5-0.1-34c49.7,0,98.3,0,147.9,0c0,11.1,0,21.7,0,32.2c0.1,12.6,1.2,13.6,15.1,13.7
	c16,0.1,17.2-0.8,17.3-13.5c0.1-10.9,0-21.7,0-33c9.9,0,18.2,0,27.7,0C276.5,298,277,295.8,276.9,293.5z M48.9,193.3
	c-10.8-0.1-20.5-9.7-20.8-20.5c-0.3-11.1,9.5-21.3,20.7-21.5c11.1-0.2,21.2,9.7,21.3,20.9C70.2,183.3,59.9,193.4,48.9,193.3z
	 M142.1,135c-33,0-66,0-99.2,0c-13.7,0-16.1-2.7-14.8-15.8c2.4-25.2,5.2-50.4,7.4-75.6c0.7-7.6,4-10.6,11.5-10.6
	c63.4,0.1,126.9,0.1,190.2,0c7.4,0,10.8,3,11.5,10.6c2.2,25.6,5.1,51.1,7.4,76.6c1.1,12-1.6,14.8-13.9,14.8
	C208.9,135,175.6,135,142.1,135z M237.1,193.3c-10.8,0-20.5-9.2-20.9-20.1c-0.4-11.3,8.9-21.3,20.2-21.7
	c11.1-0.3,21.3,9.3,21.6,20.6C258.2,183.1,248.2,193.2,237.1,193.3z"/>
</svg>
