<svg id="Capa_1" data-name="Capa 1" xmlns="http://www.w3.org/2000/svg" viewBox="0 0 284.22 347.87"><defs><style>.cls-1{fill:#fff;}</style></defs><title>van</title><g id="U9sQgp"><path class="cls-1" d="M52.43,383.2v-7.8c0-37.74.54-75.5-.19-113.23-0.5-25.66,3.6-50.75,6.66-76,2-16.54,4.65-33,6.33-49.55,1.73-17,10.19-28.73,25.4-36.17,21.83-10.69,45.29-15.18,69-18.64,45.57-6.63,89.7-.33,132.54,15.86,19.53,7.38,31,21,31.79,42.69,0.2,5.71,1.42,11.39,2.16,17.07q5,37.89,9.89,75.76a44.79,44.79,0,0,1,.37,5.73q0,69.26,0,138.52c0,1.67-.2,3.33-0.34,5.58H312.84c-0.12,2.74-.28,4.93-0.3,7.13-0.07,5.75.12,11.5-.14,17.24-0.55,11.86-8.89,19.78-20.37,19.65-11.24-.13-19.42-8-19.85-19.57-0.29-7.8-.05-15.62-0.05-23.86H116.87c0,8.14.37,16.14-.08,24.09-0.83,14.2-13.4,22.61-26.88,18.2-7.62-2.5-12.33-7.84-13.14-15.82-0.65-6.46-.42-13-0.55-19.51,0-2.25,0-4.51,0-7.37H52.43ZM194.29,247.95l104.59,0c9.54,0,14.13-5.28,12.88-14.65Q306.5,194,301.18,154.73c-1.54-11.53-4.74-14.48-16.37-14.49q-41.09,0-82.18,0-49.71,0-99.42,0c-10.19,0-13.78,3.4-15.1,13.33q-5.18,39-10.45,78C76.08,243.35,80.12,248,92,248H194.29ZM194.7,102.2H133.86c-9.05,0-13.21,3.83-13.33,12s4.14,12.16,13,12.18q24.11,0,48.22,0h74.62c7,0,10.14-2.55,11.38-8.77,1.93-9.75-2.71-15.41-12.83-15.41-20.09,0-40.18,0-60.27,0h0ZM96.43,296a21.65,21.65,0,1,0,.16,0H96.43ZM313.8,317.74a21.35,21.35,0,0,0-21-21.72h-0.3a21.62,21.62,0,0,0-1,43.22h0.7a21.46,21.46,0,0,0,21.57-21.5h0Z" transform="translate(-52.2 -79.2)"/></g></svg>